{"glyphs":{"0":{"ha":1053,"x_min":76,"x_max":976,"o":"m 76 410 q 229 817 76 663 q 628 972 382 972 q 740 951 699 972 q 757 885 753 938 q 923 764 869 858 q 976 528 976 669 q 830 124 976 282 q 488 -35 683 -35 q 184 88 292 -35 q 76 410 76 210 m 349 389 q 385 226 349 289 q 496 163 422 163 q 631 276 569 163 q 693 528 693 389 q 526 728 693 728 q 461 721 500 728 q 349 389 349 575 z "},"1":{"ha":790,"x_min":65,"x_max":668,"o":"m 250 201 q 308 579 250 288 q 147 632 214 579 q 65 796 79 685 q 278 863 178 818 q 447 940 379 908 q 569 972 515 972 q 668 861 668 972 q 614 545 668 793 q 560 191 560 297 q 600 17 560 85 q 422 -35 507 -35 q 250 201 250 -35 z "},"2":{"ha":993,"x_min":17,"x_max":908,"o":"m 339 44 q 169 -26 247 -26 q 54 19 92 -26 q 17 138 17 65 q 77 273 17 211 q 240 335 138 335 q 303 328 272 335 q 479 501 421 428 q 538 630 538 575 q 508 714 538 685 q 428 743 478 743 q 297 667 346 743 q 256 579 274 632 q 161 622 193 586 q 129 713 129 658 q 230 894 129 817 q 536 972 331 972 q 788 892 704 972 q 872 708 872 813 q 543 265 872 524 q 731 246 663 246 l 893 308 q 908 192 908 244 q 846 22 908 78 q 694 -35 783 -35 q 530 -16 606 -35 q 339 44 454 3 z "},"3":{"ha":907,"x_min":-14,"x_max":810,"o":"m 274 -217 q 61 -176 136 -217 q -14 -65 -14 -135 q 33 41 -14 4 q 138 78 81 78 q 246 47 194 78 q 331 -40 297 17 q 448 35 396 -22 q 500 157 500 93 q 449 271 500 221 q 275 222 364 222 q 164 325 164 222 q 216 423 164 383 q 372 463 268 463 q 431 460 410 463 q 490 534 468 489 q 511 627 511 579 q 482 708 511 675 q 403 740 453 740 q 306 701 354 740 q 233 578 257 663 q 119 619 157 582 q 82 713 82 656 q 183 894 82 817 q 482 972 283 972 q 642 949 575 972 q 743 889 708 926 q 808 726 808 817 q 631 393 808 563 q 810 143 810 307 q 662 -111 810 -6 q 274 -217 514 -217 z "},"4":{"ha":982,"x_min":26,"x_max":940,"o":"m 506 -44 q 511 22 506 -10 q 285 0 397 0 q 26 160 26 0 q 160 492 26 251 q 251 690 210 582 q 293 875 293 799 q 282 940 293 910 q 431 972 367 972 q 618 786 618 972 q 258 181 618 536 l 547 181 q 639 422 585 311 q 757 492 676 460 q 906 524 838 524 q 933 516 926 524 q 940 485 940 508 q 917 372 940 461 q 844 -57 844 108 q 878 -186 844 -136 q 688 -236 781 -236 q 550 -183 594 -236 q 506 -44 506 -129 z "},"5":{"ha":882,"x_min":10,"x_max":833,"o":"m 292 -217 q 84 -175 158 -217 q 10 -65 10 -133 q 57 41 10 4 q 158 78 104 78 q 332 -36 272 78 q 447 26 403 -25 q 490 142 490 76 q 440 255 490 207 q 290 303 390 303 q 176 289 240 303 q 136 321 136 292 l 188 732 q 136 848 136 790 q 169 939 136 906 q 261 972 203 972 q 414 875 357 972 q 604 900 485 875 q 825 963 724 925 q 833 872 833 921 q 568 633 833 633 q 418 642 554 633 l 403 483 q 683 401 564 475 q 781 301 744 364 q 817 158 817 239 q 670 -108 817 0 q 292 -217 524 -217 z "},"6":{"ha":936,"x_min":51,"x_max":911,"o":"m 911 425 q 759 98 911 231 q 400 -35 607 -35 q 147 63 242 -35 q 51 347 51 161 q 113 651 51 500 q 267 908 174 801 q 471 1082 360 1015 q 674 1149 582 1149 q 810 1116 765 1149 q 886 1010 856 1083 q 649 892 747 963 q 476 710 550 822 q 567 721 525 721 q 820 638 729 721 q 911 425 911 556 m 343 319 q 369 199 343 249 q 451 150 396 150 q 554 215 507 150 q 601 393 601 279 q 576 507 601 461 q 494 553 550 553 q 391 490 439 553 q 343 319 343 426 z "},"7":{"ha":850,"x_min":85,"x_max":885,"o":"m 190 0 q 276 287 190 115 q 504 642 361 458 q 378 638 436 638 q 162 703 239 638 q 85 885 85 769 q 90 972 85 929 q 360 912 199 936 q 619 888 522 888 q 767 985 676 985 q 853 951 822 985 q 885 869 885 918 q 790 717 885 774 q 604 292 693 528 q 515 -71 515 57 q 528 -136 515 -112 q 379 -168 454 -168 q 190 0 190 -168 z "},"8":{"ha":938,"x_min":71,"x_max":900,"o":"m 71 223 q 71 267 71 223 q 128 390 71 311 q 282 525 186 468 q 208 599 235 569 q 157 676 182 628 q 132 772 132 724 q 242 991 132 908 q 536 1074 353 1074 q 711 1049 639 1074 q 819 982 783 1024 q 883 822 883 906 q 835 672 883 739 q 707 556 786 604 q 846 423 792 497 q 900 274 900 349 q 769 49 900 135 q 439 -36 638 -36 q 252 -10 329 -36 q 139 58 175 15 q 71 223 71 135 m 478 363 l 399 428 q 324 272 324 369 q 359 165 324 210 q 449 121 394 121 q 540 151 503 121 q 576 224 576 182 q 557 289 576 265 q 478 363 538 313 m 646 789 q 617 881 646 844 q 539 919 589 918 q 457 892 489 919 q 425 822 425 864 q 472 738 425 779 l 586 639 q 646 789 646 694 z "},"9":{"ha":1036,"x_min":86,"x_max":946,"o":"m 403 238 q 166 322 246 238 q 86 531 86 407 q 158 758 86 654 q 345 917 229 861 q 608 972 461 972 q 850 885 754 972 q 946 640 946 797 q 887 327 946 482 q 737 58 828 172 q 533 -127 646 -56 q 318 -199 421 -199 q 113 -60 151 -199 q 536 253 383 15 q 403 238 469 238 m 654 632 q 628 751 654 703 q 546 800 601 800 q 443 735 490 800 q 396 558 396 671 q 422 444 396 490 q 503 399 447 399 q 606 462 558 399 q 654 632 654 525 z "}," ":{"ha":417,"x_min":0,"x_max":0,"o":""},"!":{"ha":636,"x_min":83,"x_max":563,"o":"m 276 388 q 179 506 179 388 q 192 681 179 535 q 206 889 206 828 q 171 983 206 950 q 413 1076 263 1076 q 563 933 563 1076 q 543 799 563 868 q 505 674 524 729 q 474 587 486 618 q 442 503 463 556 q 418 440 422 451 q 349 401 390 415 q 276 388 308 388 m 254 288 q 220 288 254 288 q 135 235 186 288 q 83 116 83 182 q 126 8 83 50 q 236 -35 168 -35 q 356 18 304 -35 q 407 137 407 71 q 365 245 407 203 q 254 288 322 288 z "},"\"":{"ha":717,"x_min":97,"x_max":689,"o":"m 499 619 q 417 689 417 619 q 453 834 417 731 q 489 982 489 938 q 479 1054 489 1026 q 607 1083 542 1083 q 689 1014 689 1083 q 653 867 689 969 q 617 720 617 764 q 626 649 617 676 q 499 619 564 619 m 179 619 q 97 689 97 619 q 133 834 97 731 q 169 982 169 938 q 160 1054 169 1026 q 288 1083 222 1083 q 369 1014 369 1083 q 333 867 369 969 q 297 720 297 764 q 307 649 297 676 q 179 619 244 619 z "},"#":{"ha":1018,"x_min":-28,"x_max":1043,"o":"m 475 833 l 694 838 q 744 1047 725 969 q 855 1136 767 1136 q 1015 1071 943 1136 q 913 840 963 992 l 926 840 q 1043 735 1043 840 q 1015 622 1043 669 q 857 647 961 644 l 797 421 l 821 421 q 938 315 938 421 q 910 203 938 250 q 747 228 854 225 q 688 7 719 118 q 533 -143 646 -143 q 408 -99 465 -143 q 525 160 465 -46 l 542 222 q 306 208 450 219 l 251 7 q 97 -143 210 -143 q -28 -99 29 -143 q 89 160 29 -46 l 99 196 q 36 194 75 194 q -25 281 -25 194 q 22 439 -25 367 q 157 414 72 419 l 206 615 q 142 614 182 614 q 81 700 81 614 q 128 858 81 786 q 257 833 175 839 q 308 1047 281 939 q 419 1136 331 1136 q 579 1071 507 1136 q 475 833 522 989 m 360 414 l 594 418 l 649 642 q 417 628 560 639 q 360 414 392 542 z "},"$":{"ha":1006,"x_min":86,"x_max":921,"o":"m 376 -1 q 151 58 217 7 q 86 193 86 108 q 126 358 86 278 q 259 269 175 306 q 422 232 343 232 q 564 308 538 232 q 374 356 456 324 q 250 422 293 388 q 181 497 207 456 q 149 567 156 539 q 143 622 143 594 q 242 840 143 767 q 490 931 340 914 q 508 1047 508 1007 q 506 1110 508 1088 q 625 1185 581 1185 q 665 1114 665 1185 q 628 935 665 1043 q 918 772 918 924 q 883 632 918 693 q 618 689 796 689 q 471 601 479 689 q 733 533 657 565 q 844 468 810 500 q 921 290 921 397 q 802 88 921 163 q 515 -1 683 13 q 497 -128 497 -81 q 503 -197 497 -176 q 386 -269 435 -269 q 342 -193 342 -269 q 376 -1 342 -117 z "},"%":{"ha":1597,"x_min":25,"x_max":1574,"o":"m 458 18 q 603 246 522 89 q 760 572 664 371 q 915 890 857 772 q 1063 1007 972 1007 q 1156 971 1115 1007 q 1017 758 1092 908 q 831 359 942 607 q 685 38 721 111 q 578 -35 650 -35 q 458 18 507 -35 m 25 579 q 105 353 25 439 q 331 268 185 268 q 585 378 476 268 q 694 661 694 489 q 531 911 694 874 q 519 958 528 947 q 436 972 488 972 q 139 864 253 972 q 25 579 25 756 m 332 426 q 282 465 300 426 q 264 563 264 503 q 324 776 264 685 q 360 781 344 781 q 447 664 447 781 q 412 500 447 574 q 332 426 376 426 m 904 285 q 984 59 904 144 q 1210 -26 1064 -26 q 1465 84 1356 -26 q 1574 367 1574 194 q 1410 617 1574 579 q 1399 664 1407 653 q 1315 678 1367 678 q 1018 569 1132 678 q 904 285 904 461 m 1211 132 q 1161 170 1179 132 q 1143 268 1143 208 q 1203 482 1143 390 q 1239 486 1224 486 q 1326 369 1326 486 q 1291 206 1326 279 q 1211 132 1256 132 z "},"&":{"ha":1053,"x_min":21,"x_max":1094,"o":"m 561 892 q 437 823 481 872 q 393 717 393 774 q 436 621 393 660 q 556 582 479 582 q 807 621 633 582 q 1038 660 981 660 q 1094 584 1094 660 q 1068 443 1094 508 q 982 451 1029 451 q 878 440 935 451 q 831 174 878 292 q 707 -14 785 57 q 343 -156 549 -156 q 104 -76 188 -156 q 21 111 21 3 q 80 316 21 219 q 247 476 139 413 q 146 579 181 517 q 111 711 111 642 q 250 965 111 854 q 621 1076 389 1076 q 810 1031 740 1076 q 879 918 879 986 q 833 814 879 850 q 731 778 786 778 q 631 807 676 778 q 561 892 586 836 m 463 126 q 630 205 544 126 q 731 429 715 283 q 516 413 575 413 q 422 418 457 413 q 339 240 339 329 q 374 157 339 188 q 463 126 408 126 z "},"'":{"ha":397,"x_min":97,"x_max":369,"o":"m 179 619 q 97 689 97 619 q 133 834 97 731 q 169 982 169 938 q 160 1054 169 1026 q 288 1083 222 1083 q 369 1014 369 1083 q 333 867 369 969 q 297 720 297 764 q 307 649 297 676 q 179 619 244 619 z "},"(":{"ha":576,"x_min":97,"x_max":590,"o":"m 313 -217 q 151 -102 206 -217 q 97 205 97 13 q 149 608 97 397 q 286 965 200 818 q 458 1113 372 1113 q 590 1053 543 1113 q 397 719 461 936 q 332 337 332 501 q 367 57 332 172 q 496 -150 403 -58 q 313 -217 400 -217 z "},")":{"ha":576,"x_min":-14,"x_max":479,"o":"m 264 1113 q 424 997 369 1113 q 479 690 479 882 q 428 288 479 499 q 290 -69 376 78 q 119 -217 204 -217 q -14 -157 33 -217 q 180 177 115 -40 q 244 559 244 394 q 209 839 244 724 q 81 1046 174 954 q 264 1113 176 1113 z "},"*":{"ha":822,"x_min":93,"x_max":801,"o":"m 435 601 q 338 431 350 482 q 210 471 268 436 q 153 537 153 506 q 187 605 153 568 q 294 706 221 642 q 103 746 183 744 q 93 834 93 783 q 113 921 93 885 q 171 957 133 957 q 353 871 208 957 q 332 1067 351 1015 q 464 1111 407 1111 q 538 1092 521 1111 q 556 1026 556 1072 q 525 868 556 981 q 707 946 674 915 q 774 865 746 913 q 801 788 801 817 q 747 728 801 743 q 576 703 692 713 q 656 601 632 628 q 707 554 679 575 q 642 455 686 499 q 567 411 599 411 q 435 601 504 411 m 436 640 q 557 713 472 676 q 514 846 514 789 q 440 839 461 839 q 374 846 419 839 q 326 714 364 765 q 436 640 410 683 z "},"+":{"ha":1018,"x_min":139,"x_max":879,"o":"m 193 393 q 139 482 139 393 q 182 635 139 571 q 406 611 257 611 q 403 774 403 719 q 508 883 403 883 q 618 858 569 883 q 596 725 596 804 q 599 615 596 646 q 769 619 683 619 q 879 514 879 619 q 854 404 879 453 q 701 426 800 426 q 615 424 671 426 q 629 197 629 271 q 540 143 629 143 q 388 186 451 143 q 411 406 411 261 q 193 393 279 393 z "},",":{"ha":463,"x_min":17,"x_max":394,"o":"m 164 -3 l 67 122 q 122 239 69 189 q 244 289 175 289 q 354 242 314 289 q 394 129 394 194 q 297 -127 394 -15 q 38 -272 200 -239 l 17 -211 q 123 -119 82 -181 q 164 -3 164 -57 z "},"-":{"ha":733,"x_min":76,"x_max":657,"o":"m 164 254 q 76 356 76 254 q 115 514 76 429 q 201 504 144 504 q 381 549 257 504 q 569 593 506 593 q 657 492 657 593 q 618 333 657 418 q 533 343 589 343 q 352 299 476 343 q 164 254 228 254 z "},".":{"ha":463,"x_min":69,"x_max":393,"o":"m 222 -35 q 188 -35 222 -35 q 112 8 154 -35 q 69 116 69 50 q 121 235 69 182 q 240 288 172 288 q 351 245 308 288 q 393 137 393 203 q 342 18 393 71 q 222 -35 290 -35 z "},"/":{"ha":551,"x_min":-28,"x_max":579,"o":"m 251 32 q 97 -118 210 -118 q -28 -74 29 -118 q 88 185 29 -21 q 225 722 147 392 q 308 1072 303 1053 q 419 1161 331 1161 q 579 1096 507 1161 q 466 833 513 997 q 356 421 419 668 q 251 32 292 174 z "},":":{"ha":463,"x_min":69,"x_max":458,"o":"m 222 -35 q 188 -35 222 -35 q 112 8 154 -35 q 69 116 69 50 q 121 235 69 182 q 240 288 172 288 q 351 245 308 288 q 393 137 393 203 q 342 18 393 71 q 222 -35 290 -35 m 288 456 q 253 456 288 456 q 177 498 219 456 q 135 606 135 540 q 186 725 135 672 q 306 778 238 778 q 416 735 374 778 q 458 627 458 693 q 407 508 458 561 q 288 456 356 456 z "},";":{"ha":463,"x_min":17,"x_max":458,"o":"m 164 -3 l 67 122 q 122 239 69 189 q 244 289 175 289 q 354 242 314 289 q 394 129 394 194 q 297 -127 394 -15 q 38 -272 200 -239 l 17 -211 q 123 -119 82 -181 q 164 -3 164 -57 m 288 456 q 253 456 288 456 q 177 498 219 456 q 135 606 135 540 q 186 725 135 672 q 306 778 238 778 q 416 735 374 778 q 458 627 458 693 q 407 508 458 561 q 288 456 356 456 z "},"<":{"ha":1018,"x_min":143,"x_max":868,"o":"m 847 697 q 701 659 778 690 q 529 579 624 628 q 390 513 435 531 q 583 433 457 476 q 789 356 710 389 q 868 297 868 324 q 823 203 868 254 q 726 126 778 153 q 603 215 682 174 q 403 314 524 257 q 231 399 283 371 q 161 475 178 426 q 143 596 144 524 q 304 650 208 600 q 481 758 400 700 q 746 911 693 911 q 817 843 788 911 q 847 697 847 775 z "},"=":{"ha":1018,"x_min":139,"x_max":879,"o":"m 360 818 l 769 826 q 879 721 879 826 q 854 611 879 660 q 706 633 800 633 q 444 617 613 633 q 193 600 276 600 q 139 689 139 600 q 182 842 139 778 q 360 818 257 818 m 360 419 l 769 428 q 879 322 879 428 q 854 213 879 261 q 706 235 800 235 q 444 218 613 235 q 193 201 276 201 q 139 290 139 201 q 182 443 139 379 q 360 419 257 419 z "},">":{"ha":1018,"x_min":143,"x_max":868,"o":"m 164 335 q 310 373 233 342 q 482 453 388 404 q 621 519 576 501 q 428 599 554 556 q 222 676 301 643 q 143 735 143 708 q 188 828 143 778 q 285 906 233 879 q 408 817 329 858 q 608 718 488 775 q 781 633 728 661 q 850 557 833 606 q 868 436 867 508 q 707 382 803 432 q 531 275 611 332 q 265 121 318 121 q 194 189 224 121 q 164 335 164 257 z "},"?":{"ha":836,"x_min":65,"x_max":776,"o":"m 297 529 q 429 604 379 550 q 479 714 479 658 q 372 833 479 833 q 200 669 253 833 q 100 718 135 676 q 65 818 65 760 q 155 997 65 918 q 419 1076 244 1076 q 685 985 593 1076 q 776 763 776 893 q 678 479 776 593 q 456 365 581 365 q 342 411 386 365 q 297 529 297 457 m 344 288 q 310 288 344 288 q 225 235 276 288 q 174 116 174 182 q 216 8 174 50 q 326 -35 258 -35 q 446 18 394 -35 q 497 137 497 71 q 455 245 497 203 q 344 288 413 288 z "},"@":{"ha":1514,"x_min":83,"x_max":1458,"o":"m 407 400 q 500 690 407 560 q 620 794 544 754 q 781 833 696 833 q 896 825 867 833 q 904 778 904 796 q 1054 822 971 822 q 1125 756 1125 822 q 1094 588 1125 714 q 1063 386 1063 463 q 1133 275 1063 275 q 1269 356 1215 275 q 1324 574 1324 436 q 1214 856 1324 736 q 1057 951 1157 915 q 822 986 957 986 q 574 935 688 986 q 389 800 461 883 q 277 613 317 717 q 238 387 238 508 q 278 166 238 265 q 394 8 319 67 q 775 -103 540 -103 q 1274 90 1081 -103 q 1301 -29 1301 24 q 1222 -185 1301 -115 q 1017 -290 1143 -254 q 757 -326 892 -326 q 508 -289 622 -326 q 297 -175 394 -251 q 142 35 200 -99 q 83 329 83 169 q 132 624 83 489 q 273 868 181 758 q 515 1044 365 978 q 828 1111 664 1111 q 1112 1066 993 1111 q 1306 946 1231 1021 q 1458 583 1458 790 q 1413 356 1458 463 q 1267 178 1367 250 q 1032 107 1167 107 q 894 155 942 107 q 836 276 846 203 l 825 282 q 727 176 786 213 q 606 139 668 139 q 465 206 522 139 q 407 400 407 274 m 838 399 q 893 710 856 572 q 709 635 774 699 q 644 483 644 572 q 672 397 644 431 q 749 363 699 363 q 838 399 799 363 z "},"A":{"ha":1013,"x_min":-8,"x_max":1006,"o":"m 882 803 l 871 472 q 899 185 871 301 q 1006 24 928 68 q 811 -36 910 -36 q 597 244 638 -36 l 314 244 q 288 106 288 154 q 299 29 288 58 q 115 -36 196 -36 q -8 114 -8 -36 q 38 303 -8 189 q 162 564 85 417 q 260 758 239 711 q 225 906 244 833 q 365 981 297 956 q 510 1007 432 1007 q 619 972 589 1007 q 750 1007 699 1007 q 826 990 801 1007 q 863 942 851 974 q 882 803 882 886 m 603 771 l 558 771 q 372 390 433 529 l 588 390 q 603 771 588 542 z "},"B":{"ha":1051,"x_min":83,"x_max":1010,"o":"m 250 -36 q 206 -36 250 -36 q 122 16 161 -36 q 83 172 83 68 q 171 758 83 275 l 97 907 q 383 1008 254 1008 q 486 925 469 1008 q 767 1007 629 1007 q 925 965 857 1007 q 1006 797 1006 917 q 788 511 1006 600 q 1010 263 1010 472 q 897 46 1010 126 q 645 -35 785 -35 q 421 24 506 -35 q 250 -36 339 -36 m 689 294 q 689 326 689 294 q 651 389 689 358 q 549 419 613 419 q 406 393 485 419 q 383 192 383 275 q 525 160 451 160 q 644 194 599 160 q 689 294 689 229 m 599 824 q 482 803 544 824 q 431 525 474 749 q 626 581 546 533 q 707 719 707 629 q 599 824 707 824 z "},"C":{"ha":949,"x_min":42,"x_max":935,"o":"m 42 426 q 83 624 42 524 q 201 811 125 725 q 401 952 278 897 q 655 1007 524 1007 q 860 958 786 1007 q 935 824 935 910 q 878 690 935 738 q 750 642 822 642 q 620 673 678 642 q 528 763 563 704 q 399 621 453 726 q 344 409 344 515 q 379 241 344 303 q 478 179 414 179 q 591 244 542 179 q 640 401 640 310 q 841 379 781 401 q 901 283 901 357 q 776 67 901 168 q 463 -35 651 -35 q 158 82 274 -35 q 42 426 42 199 z "},"D":{"ha":1078,"x_min":83,"x_max":1078,"o":"m 83 226 q 121 506 83 306 q 167 758 158 706 l 93 907 q 393 1007 269 1007 q 485 965 454 1007 q 697 1006 600 1006 q 978 888 878 1006 q 1078 596 1078 771 q 908 172 1078 365 q 692 22 826 79 q 406 -35 558 -35 q 168 33 253 -35 q 83 226 83 100 m 378 174 q 443 168 407 168 q 679 277 594 168 q 764 546 764 386 q 706 751 764 675 q 538 828 647 828 q 482 822 521 828 q 431 506 472 751 q 378 174 390 261 z "},"E":{"ha":860,"x_min":83,"x_max":888,"o":"m 243 -36 q 202 -36 243 -36 q 122 16 161 -36 q 83 172 83 68 q 171 758 83 275 l 97 907 q 383 1008 254 1008 q 485 931 465 1008 q 876 1001 642 935 q 888 911 888 956 q 813 742 888 799 q 622 685 739 685 q 467 718 543 685 q 428 514 456 656 q 515 504 479 504 q 640 536 572 515 q 647 459 647 513 q 604 374 647 406 q 508 342 561 342 q 399 354 454 342 q 383 189 383 267 l 608 189 q 821 243 714 204 q 829 175 829 218 q 781 29 829 93 q 649 -35 733 -35 q 519 -17 604 -35 q 392 4 433 0 q 243 -36 325 -36 z "},"F":{"ha":818,"x_min":83,"x_max":874,"o":"m 251 -36 q 206 -36 251 -36 q 122 16 161 -36 q 83 172 83 68 q 171 758 83 275 l 97 907 q 383 1008 254 1008 q 485 931 465 1008 q 863 1001 626 935 q 874 896 874 939 q 806 756 874 807 q 650 706 739 706 q 472 749 561 706 q 460 681 472 749 q 428 515 450 626 q 517 504 475 504 q 642 536 574 515 q 649 459 649 513 q 606 374 649 406 q 508 342 563 342 q 399 354 454 342 q 383 228 383 267 q 425 26 383 93 q 251 -36 342 -36 z "},"G":{"ha":1003,"x_min":42,"x_max":975,"o":"m 678 267 l 607 413 q 875 511 756 511 q 975 399 975 511 q 937 203 975 367 q 899 -46 899 40 q 936 -174 899 -132 q 774 -231 858 -231 q 653 -175 689 -231 q 618 -12 618 -119 q 463 -35 543 -35 q 158 82 274 -35 q 42 426 42 199 q 83 624 42 524 q 201 811 125 725 q 401 952 278 897 q 655 1007 524 1007 q 860 958 786 1007 q 935 824 935 910 q 878 690 935 738 q 750 642 822 642 q 620 673 678 642 q 528 763 563 704 q 399 621 453 726 q 344 400 344 515 q 390 227 344 285 q 503 169 435 169 q 678 267 601 169 z "},"H":{"ha":1144,"x_min":83,"x_max":1103,"o":"m 696 179 q 715 371 696 238 l 401 371 q 383 228 383 267 q 425 26 383 93 q 251 -36 342 -36 q 122 16 161 -36 q 83 172 83 68 q 171 758 83 275 l 97 907 q 383 1008 254 1008 q 490 878 490 1008 q 432 536 490 839 l 743 536 q 783 758 749 571 l 710 907 q 996 1008 867 1008 q 1103 878 1103 1008 q 1049 558 1103 835 q 996 228 996 281 q 1038 26 996 93 q 864 -36 954 -36 q 735 16 774 -36 q 696 179 696 68 z "},"I":{"ha":539,"x_min":90,"x_max":497,"o":"m 258 -36 q 213 -36 258 -36 q 129 16 168 -36 q 90 172 90 68 q 178 758 90 275 l 104 907 q 390 1008 261 1008 q 497 878 497 1008 q 444 558 497 835 q 390 228 390 281 q 432 26 390 93 q 258 -36 349 -36 z "},"J":{"ha":768,"x_min":0,"x_max":768,"o":"m 419 679 q 134 722 224 679 q 44 883 44 765 q 58 1001 44 925 q 286 937 154 961 q 493 913 418 913 q 639 1006 546 1006 q 734 967 700 1006 q 768 870 768 929 q 722 760 768 811 l 674 361 q 619 169 661 254 q 518 36 576 85 q 275 -62 400 -62 q 75 -8 150 -62 q 0 126 0 47 q 46 249 0 204 q 153 294 92 294 q 268 251 215 294 q 349 122 321 208 l 383 150 q 346 317 346 254 q 372 476 346 351 q 419 679 399 601 z "},"K":{"ha":1000,"x_min":83,"x_max":1022,"o":"m 251 -36 q 206 -36 251 -36 q 122 16 161 -36 q 83 172 83 68 q 171 758 83 275 l 97 907 q 383 1008 254 1008 q 490 878 490 1008 q 432 536 490 839 l 497 590 q 700 879 700 760 q 689 944 700 915 q 883 1007 792 1007 q 1019 868 1019 1007 q 743 553 1019 713 q 1022 42 872 139 q 931 -12 992 11 q 824 -35 871 -35 q 672 14 729 -35 q 569 193 615 63 l 489 419 l 403 374 q 383 228 383 260 q 425 26 383 93 q 251 -36 342 -36 z "},"L":{"ha":763,"x_min":83,"x_max":754,"o":"m 253 -36 q 122 16 161 -36 q 83 172 83 68 q 171 758 83 275 l 97 907 q 383 1008 254 1008 q 490 878 490 1008 q 437 553 490 839 q 383 189 383 267 l 533 189 q 746 243 639 204 q 754 175 754 218 q 706 29 754 93 q 574 -35 658 -35 q 376 -4 517 -35 q 253 -36 318 -36 z "},"M":{"ha":1439,"x_min":83,"x_max":1393,"o":"m 1154 -36 q 1109 -36 1154 -36 q 1025 16 1064 -36 q 986 169 986 68 q 1051 636 986 271 l 1029 636 q 889 371 944 525 q 821 93 833 217 q 664 29 753 29 q 601 55 628 29 q 547 144 574 81 q 474 636 496 274 l 451 636 q 383 215 383 338 q 425 26 383 93 q 251 -36 342 -36 q 122 16 161 -36 q 83 172 83 68 q 171 758 83 275 l 97 907 q 383 1008 254 1008 q 480 997 440 1008 q 556 951 519 985 q 617 858 593 918 q 694 465 671 724 l 711 465 q 911 831 783 678 q 1077 960 981 913 q 1286 1007 1174 1007 q 1393 878 1393 1007 q 1340 558 1393 835 q 1286 228 1286 281 q 1328 26 1286 93 q 1154 -36 1244 -36 z "},"N":{"ha":1208,"x_min":76,"x_max":1181,"o":"m 803 218 l 836 240 q 746 621 746 414 q 826 894 746 782 q 1051 1007 906 1007 q 1181 981 1128 1007 q 1131 710 1167 903 q 1053 233 1053 294 q 1097 36 1053 101 q 985 -19 1036 -4 q 852 -35 933 -35 q 705 0 771 -35 q 597 92 639 35 q 525 235 554 150 q 463 613 474 383 l 440 613 q 376 208 376 324 q 418 26 376 93 q 244 -36 335 -36 q 115 16 154 -36 q 76 172 76 68 q 164 758 76 275 l 90 907 q 368 1007 246 1007 q 553 965 490 1007 q 640 840 615 922 q 677 667 665 758 q 719 449 689 576 q 803 218 749 321 z "},"O":{"ha":1075,"x_min":35,"x_max":1054,"o":"m 35 425 q 182 848 35 689 q 585 1007 329 1007 q 702 974 667 1007 q 738 874 738 942 q 735 836 738 864 q 849 878 786 878 q 994 802 933 878 q 1054 583 1054 726 q 1008 321 1054 440 q 887 125 963 201 q 715 7 811 49 q 515 -35 618 -35 q 164 92 293 -35 q 35 425 35 219 m 728 360 q 639 593 639 468 q 694 794 639 718 q 644 799 669 799 q 474 739 546 799 q 338 431 338 628 q 388 243 338 318 q 526 168 438 168 q 651 222 594 168 q 728 360 707 275 z "},"P":{"ha":996,"x_min":83,"x_max":996,"o":"m 392 304 q 383 228 383 254 q 425 26 383 93 q 251 -36 342 -36 q 122 16 161 -36 q 83 172 83 68 q 171 758 83 275 l 97 907 q 383 1008 254 1008 q 463 995 419 1008 q 524 965 506 982 q 714 1006 626 1006 q 920 915 844 1006 q 996 694 996 824 q 883 417 996 539 q 738 321 829 357 q 551 285 646 285 q 392 304 456 285 m 418 463 q 458 458 438 458 q 617 521 547 458 q 686 675 686 583 q 649 783 686 739 q 546 828 613 828 q 482 817 518 828 q 418 463 454 626 z "},"Q":{"ha":1075,"x_min":35,"x_max":1054,"o":"m 35 425 q 182 848 35 689 q 585 1007 329 1007 q 702 974 667 1007 q 738 874 738 942 q 735 836 738 864 q 849 878 786 878 q 994 802 933 878 q 1054 585 1054 726 q 926 171 1054 332 q 608 -25 797 10 l 608 -33 q 736 -44 692 -44 q 985 -3 872 -44 q 1000 -94 1000 -44 q 949 -234 1000 -178 q 799 -290 897 -290 q 361 -144 615 -290 q 190 -235 294 -235 q 106 -199 136 -235 q 75 -114 75 -164 q 119 -22 75 -64 q 243 19 163 19 l 243 31 q 88 191 142 89 q 35 425 35 293 m 728 360 q 639 593 639 468 q 694 794 639 718 q 644 799 669 799 q 474 739 546 799 q 338 431 338 628 q 388 243 338 318 q 526 168 438 168 q 651 222 594 168 q 728 360 707 275 z "},"R":{"ha":1018,"x_min":83,"x_max":1046,"o":"m 593 193 l 544 333 q 399 356 472 333 q 383 228 383 267 q 425 26 383 93 q 251 -36 342 -36 q 122 16 161 -36 q 83 172 83 68 q 171 758 83 275 l 97 907 q 383 1007 253 1007 q 538 965 483 1007 q 725 1007 642 1007 q 928 921 853 1007 q 1003 714 1003 835 q 957 540 1003 624 q 822 403 911 456 q 928 171 869 268 q 1046 42 988 74 q 956 -12 1017 11 q 847 -35 896 -35 q 696 13 753 -35 q 593 193 639 61 m 460 507 q 633 564 571 507 q 694 686 694 621 q 658 790 694 751 q 556 829 622 829 q 483 819 519 829 q 428 508 439 554 q 460 507 438 507 z "},"S":{"ha":956,"x_min":49,"x_max":942,"o":"m 575 1007 q 850 965 758 1007 q 942 830 942 922 q 885 690 942 738 q 757 642 829 642 q 627 678 685 642 q 547 776 569 715 q 449 742 496 776 q 390 654 403 708 q 785 499 665 588 q 904 271 904 410 q 778 49 904 132 q 440 -35 653 -35 q 138 24 226 -35 q 49 178 49 82 q 108 354 49 274 q 220 242 138 292 q 383 192 303 192 q 572 286 532 192 q 221 415 342 317 q 100 651 100 513 q 150 817 100 744 q 278 929 200 890 q 575 1007 431 1007 z "},"T":{"ha":826,"x_min":18,"x_max":885,"o":"m 18 767 q 76 936 18 879 q 216 993 135 993 q 438 965 297 993 q 649 936 578 938 q 874 990 767 958 q 885 900 885 954 q 820 731 885 788 q 656 674 756 674 q 589 676 631 674 q 513 228 513 275 q 554 26 513 93 q 381 -36 471 -36 q 251 16 290 -36 q 213 172 213 68 q 293 724 213 275 q 29 676 136 703 q 18 767 18 711 z "},"U":{"ha":1149,"x_min":90,"x_max":1121,"o":"m 1035 26 q 871 -36 951 -36 q 743 6 790 -36 q 696 131 696 47 q 697 167 696 154 l 683 171 q 314 -35 546 -35 q 90 201 90 -35 q 113 412 90 281 q 151 634 135 543 q 172 758 167 725 l 99 907 q 251 982 186 957 q 381 1007 315 1007 q 469 973 446 1007 q 492 892 492 939 q 445 589 492 844 q 399 290 399 333 q 474 181 399 181 q 600 251 529 181 q 715 446 671 322 q 686 621 686 531 q 766 894 686 782 q 992 1007 846 1007 q 1121 981 1072 1007 q 1072 708 1108 906 q 993 228 993 290 q 1035 26 993 93 z "},"V":{"ha":1011,"x_min":0,"x_max":1025,"o":"m 467 453 l 463 219 l 499 219 q 642 573 576 385 q 707 860 707 761 q 692 935 707 899 q 886 1007 797 1007 q 1025 850 1025 1007 q 983 653 1025 772 q 857 356 940 535 q 768 164 774 178 l 788 88 q 624 1 724 36 q 403 -35 524 -35 q 224 4 282 -35 q 165 135 165 43 l 167 390 q 89 839 167 708 q 0 935 53 899 q 217 1007 94 1007 q 382 920 328 1007 q 453 713 436 833 q 467 453 467 603 z "},"W":{"ha":1414,"x_min":0,"x_max":1428,"o":"m 869 554 l 865 219 l 901 219 q 1044 573 979 385 q 1110 860 1110 761 q 1094 935 1110 899 q 1289 1007 1200 1007 q 1428 850 1428 1007 q 1385 653 1428 772 q 1260 356 1343 535 q 1171 164 1176 178 l 1190 88 q 892 -35 1071 -35 q 665 31 713 -35 q 415 -35 549 -35 q 224 4 282 -35 q 165 135 165 43 l 167 390 q 89 839 167 708 q 0 935 53 899 q 217 1007 94 1007 q 382 920 328 1007 q 453 713 436 833 q 467 453 467 603 l 463 219 l 499 219 q 632 628 578 392 q 571 896 618 761 q 667 953 622 936 q 785 971 711 971 q 936 831 936 971 q 869 554 936 747 z "},"X":{"ha":1040,"x_min":14,"x_max":1047,"o":"m 783 -35 q 636 14 690 -35 q 504 208 582 63 l 446 317 q 351 114 351 204 q 364 38 351 69 q 158 -35 258 -35 q 49 3 85 -35 q 14 96 14 40 q 346 504 14 261 l 222 738 q 53 908 150 876 q 276 1007 147 1007 q 424 958 369 1007 q 556 764 478 910 l 613 656 q 710 858 710 767 q 696 935 710 900 q 903 1007 803 1007 q 1012 969 976 1007 q 1047 876 1047 932 q 717 460 1047 701 l 838 235 q 1007 64 910 96 q 783 -35 913 -35 z "},"Y":{"ha":933,"x_min":-14,"x_max":947,"o":"m 169 250 q 164 367 168 278 q 156 502 160 456 q 141 629 153 549 q 111 758 129 710 q -14 942 67 886 q 162 1007 94 1007 q 274 985 229 1007 q 347 931 318 963 q 397 844 375 900 q 431 743 419 789 q 449 625 442 697 q 459 508 457 553 q 463 391 461 464 q 467 290 465 318 l 486 290 q 585 586 540 419 q 631 851 631 753 q 610 942 631 900 q 794 1007 714 1007 q 947 846 947 1007 q 885 571 947 764 q 738 197 822 378 q 512 -142 628 -37 q 214 -246 396 -246 q 68 -214 133 -246 q -11 -87 -11 -176 q 57 96 -11 1 q 139 27 88 51 q 252 3 190 3 q 369 37 314 3 q 447 135 424 71 q 313 117 374 117 q 169 250 181 117 z "},"Z":{"ha":936,"x_min":-28,"x_max":936,"o":"m 121 -28 q 13 10 54 -28 q -28 118 -28 49 q 26 244 -28 188 q 174 301 79 301 l 440 657 q 189 716 282 661 q 96 883 96 771 q 110 1001 96 936 q 384 934 208 961 q 642 907 560 907 q 797 1006 699 1006 q 899 965 863 1006 q 936 864 936 924 q 819 715 936 769 l 464 271 l 708 244 l 876 321 q 888 211 888 271 q 826 27 888 89 q 667 -35 764 -35 q 306 75 479 -35 q 121 -28 219 -28 z "},"[":{"ha":668,"x_min":118,"x_max":710,"o":"m 118 21 q 226 811 118 321 q 280 974 249 913 q 360 1065 311 1035 q 460 1103 410 1094 q 586 1111 510 1111 q 686 1078 663 1111 q 710 985 710 1044 q 703 901 710 925 q 621 919 682 911 q 522 928 560 928 q 408 531 440 765 q 376 -35 376 297 q 472 -26 414 -35 q 551 -8 531 -18 q 563 -81 563 -46 q 468 -218 563 -218 q 314 -214 361 -218 q 212 -188 267 -210 q 138 -117 157 -167 q 118 21 118 -67 z "},"\\":{"ha":551,"x_min":-28,"x_max":579,"o":"m 300 32 q 196 421 260 174 q 85 833 132 668 q -28 1096 39 997 q 133 1161 44 1161 q 243 1072 221 1161 q 326 722 249 1053 q 463 185 404 392 q 579 -74 522 -21 q 454 -118 522 -118 q 300 32 342 -118 z "},"]":{"ha":668,"x_min":-42,"x_max":550,"o":"m 550 872 q 442 82 550 572 q 388 -81 419 -19 q 308 -172 357 -142 q 208 -210 258 -201 q 82 -218 158 -218 q -18 -185 6 -218 q -42 -92 -42 -151 q -35 -8 -42 -32 q 47 -26 -14 -18 q 146 -35 108 -35 q 260 362 228 128 q 292 928 292 596 q 196 919 254 928 q 117 901 138 911 q 110 984 110 925 q 130 1077 110 1043 q 200 1111 150 1111 q 354 1107 307 1111 q 456 1081 401 1103 q 531 1010 511 1060 q 550 872 550 960 z "},"^":{"ha":1018,"x_min":81,"x_max":910,"o":"m 650 1332 q 649 1314 649 1326 q 690 1155 649 1249 q 779 983 731 1061 q 910 714 910 776 q 833 625 910 664 q 676 586 756 586 q 646 588 656 586 q 599 808 646 683 q 573 876 579 860 q 542 951 567 893 q 515 1011 517 1008 q 435 841 489 965 q 338 641 381 717 q 263 565 294 565 q 155 621 211 565 q 81 733 99 676 q 200 881 133 771 q 292 1042 219 913 q 405 1233 365 1171 q 503 1314 444 1296 q 650 1332 561 1332 z "},"_":{"ha":1004,"x_min":21,"x_max":983,"o":"m 249 -35 q 549 -31 249 -35 q 867 -26 707 -26 q 983 -132 983 -26 q 956 -244 983 -197 q 760 -219 897 -219 q 375 -236 622 -219 q 82 -253 128 -253 q 21 -167 21 -253 q 68 -8 21 -81 q 249 -35 135 -35 z "},"`":{"ha":522,"x_min":28,"x_max":494,"o":"m 417 907 q 248 953 358 907 q 74 1000 138 1000 q 42 997 61 1000 q 28 1099 28 1044 q 106 1231 28 1231 q 223 1184 157 1231 q 362 1082 289 1138 q 494 1013 435 1026 q 469 933 490 958 q 417 907 447 907 z "},"a":{"ha":1022,"x_min":56,"x_max":960,"o":"m 593 171 l 579 178 q 472 22 542 78 q 315 -35 401 -35 q 126 54 197 -35 q 56 292 56 143 q 210 678 56 522 q 596 833 365 833 q 706 822 656 833 q 715 754 714 783 q 858 799 785 799 q 960 689 960 799 q 916 454 960 650 q 872 164 872 258 q 915 33 872 69 q 753 -35 838 -35 q 631 15 669 -35 q 593 171 593 65 m 317 360 q 345 255 317 292 q 426 218 374 218 q 531 257 479 218 q 617 364 582 296 q 671 696 629 504 q 424 594 531 696 q 317 360 317 493 z "},"b":{"ha":1026,"x_min":92,"x_max":964,"o":"m 92 264 q 182 864 92 381 l 104 975 q 249 1051 190 1026 q 367 1076 308 1076 q 454 1053 426 1076 q 482 978 482 1029 q 428 629 482 889 l 442 622 q 733 821 542 821 q 903 728 842 821 q 964 505 964 636 q 912 269 964 374 q 777 99 860 164 q 597 0 694 35 q 404 -35 500 -35 q 169 38 247 -35 q 92 264 92 110 m 367 126 q 617 232 521 126 q 714 468 714 338 q 681 576 714 528 q 596 625 649 625 q 498 582 543 625 q 428 479 453 539 q 389 344 404 419 q 367 126 367 226 z "},"c":{"ha":886,"x_min":63,"x_max":858,"o":"m 63 331 q 215 693 63 553 q 600 833 368 833 q 789 788 719 833 q 858 675 858 743 q 812 571 858 607 q 710 535 765 535 q 610 564 656 535 q 540 649 565 593 q 402 521 453 613 q 351 338 351 429 q 388 189 351 246 q 482 132 424 132 q 577 171 540 132 q 614 286 614 210 q 817 190 817 286 q 714 37 817 108 q 443 -35 611 -35 q 169 66 275 -35 q 63 331 63 167 z "},"d":{"ha":1039,"x_min":63,"x_max":1004,"o":"m 600 101 l 586 108 q 328 -35 478 -35 q 140 53 217 -35 q 63 292 63 142 q 193 631 63 478 q 364 752 257 706 q 603 799 471 799 q 692 793 628 799 q 704 864 694 822 l 626 975 q 900 1076 800 1076 q 981 1053 957 1076 q 1004 967 1004 1031 q 942 611 1004 904 q 881 195 881 318 q 924 33 881 72 q 762 -35 846 -35 q 639 8 678 -35 q 600 101 600 50 m 324 344 q 365 219 324 265 q 467 174 406 174 q 611 249 546 174 q 674 676 633 496 q 419 574 514 676 q 324 344 324 471 z "},"e":{"ha":913,"x_min":63,"x_max":864,"o":"m 460 -35 q 166 64 269 -35 q 63 331 63 163 q 216 694 63 554 q 601 833 369 833 q 797 776 731 833 q 864 624 864 718 q 738 409 864 494 q 350 322 613 324 q 390 183 354 233 q 481 132 426 132 q 574 168 535 132 q 614 286 614 204 q 817 190 817 286 q 717 37 817 108 q 460 -35 617 -35 m 578 671 q 448 600 507 671 q 363 433 389 529 q 572 497 501 444 q 642 607 642 549 q 624 653 642 635 q 578 671 607 671 z "},"f":{"ha":600,"x_min":67,"x_max":663,"o":"m 76 440 q 67 503 67 471 q 104 604 67 569 q 200 640 142 639 q 190 735 190 683 q 269 998 190 888 q 493 1108 349 1108 q 617 1061 572 1108 q 663 951 663 1014 q 619 845 663 889 q 507 801 576 801 q 383 835 438 801 l 364 819 l 413 654 q 560 692 485 664 q 569 617 569 661 q 544 535 569 574 q 469 486 518 497 q 381 -97 381 76 q 424 -224 381 -186 q 243 -292 322 -292 q 88 -100 88 -292 q 174 464 88 19 q 76 440 111 451 z "},"g":{"ha":1013,"x_min":69,"x_max":943,"o":"m 332 389 q 372 274 332 318 q 469 231 411 231 q 611 306 549 231 q 672 696 635 429 q 424 606 517 696 q 332 389 332 515 m 701 -138 q 668 -182 701 -138 q 536 -276 635 -225 q 328 -326 438 -326 q 153 -285 219 -326 q 88 -175 88 -244 q 144 -29 88 -106 q 336 -124 208 -124 q 491 -52 419 -124 q 586 157 563 19 l 572 164 q 319 19 474 19 q 136 110 203 19 q 69 350 69 200 q 149 614 69 494 q 400 804 239 751 q 569 833 489 833 q 706 822 650 833 q 715 754 714 785 q 847 799 781 799 q 943 700 943 799 q 931 498 943 601 q 892 276 918 394 q 816 53 865 158 q 701 -138 767 -51 z "},"h":{"ha":1074,"x_min":97,"x_max":1011,"o":"m 843 833 q 1011 665 1011 833 q 970 421 1011 593 q 929 161 929 249 q 958 33 929 74 q 803 -35 885 -35 q 643 138 643 -35 q 685 354 643 201 q 726 553 726 507 q 679 615 726 615 q 590 581 640 615 q 494 490 540 547 q 415 344 447 432 q 383 165 383 256 q 413 33 383 74 q 257 -35 339 -35 q 97 138 97 -35 q 153 554 97 240 q 207 864 200 831 l 129 975 q 403 1076 303 1076 q 483 1053 460 1076 q 507 978 507 1031 q 488 760 507 878 q 451 586 468 642 l 465 579 q 843 833 614 833 z "},"i":{"ha":539,"x_min":90,"x_max":525,"o":"m 525 1053 q 525 1027 525 1053 q 469 962 525 1000 q 343 924 414 924 q 231 951 272 924 q 190 1026 190 979 q 250 1126 190 1090 q 376 1163 310 1163 q 484 1135 443 1163 q 525 1053 525 1107 m 255 -35 q 211 -35 255 -35 q 129 8 168 -35 q 90 140 90 51 q 179 613 90 228 l 101 729 q 375 833 275 833 q 456 809 432 833 q 479 731 479 785 q 428 486 479 710 q 376 167 376 263 q 419 33 376 71 q 255 -35 342 -35 z "},"j":{"ha":544,"x_min":-94,"x_max":521,"o":"m 521 1053 q 521 1027 521 1053 q 465 962 521 1000 q 339 924 410 924 q 227 951 268 924 q 186 1026 186 979 q 246 1126 186 1090 q 372 1163 306 1163 q 480 1135 439 1163 q 521 1053 521 1107 m 475 731 q 361 51 475 614 q 259 -193 332 -94 q 71 -292 186 -292 q -53 -253 -11 -292 q -94 -155 -94 -215 q -53 -58 -94 -94 q 51 -21 -11 -21 q 179 -67 113 -21 l 193 -47 q 115 51 133 14 q 97 140 97 89 q 175 613 97 190 l 97 729 q 371 833 271 833 q 451 809 428 833 q 475 731 475 785 z "},"k":{"ha":1006,"x_min":90,"x_max":978,"o":"m 200 864 l 122 975 q 396 1076 296 1076 q 476 1053 453 1076 q 500 977 500 1031 q 483 828 500 924 q 437 601 465 732 q 396 392 408 471 l 483 469 q 524 505 496 481 q 565 540 553 529 q 597 572 576 551 q 628 606 618 592 q 650 638 638 619 q 669 706 669 668 q 658 774 669 744 q 844 833 757 833 q 938 797 903 833 q 972 690 972 760 q 909 551 972 621 q 753 428 846 481 q 864 165 796 285 q 978 22 932 46 q 806 -35 922 -35 q 660 24 719 -35 q 556 215 601 82 l 521 314 l 378 243 q 376 197 376 228 q 419 33 376 82 q 243 -35 322 -35 q 127 17 164 -35 q 90 161 90 69 q 142 536 90 253 q 200 864 193 819 z "},"l":{"ha":535,"x_min":97,"x_max":507,"o":"m 207 864 l 129 975 q 403 1076 303 1076 q 483 1053 460 1076 q 507 967 507 1031 q 445 611 507 904 q 383 200 383 318 q 426 33 383 82 q 250 -35 329 -35 q 134 17 171 -35 q 97 161 97 69 q 149 536 97 253 q 207 864 200 819 z "},"m":{"ha":1571,"x_min":76,"x_max":1508,"o":"m 963 586 l 976 579 q 1340 833 1125 833 q 1508 665 1508 833 q 1467 421 1508 593 q 1426 161 1426 249 q 1456 33 1426 74 q 1300 -35 1382 -35 q 1140 138 1140 -35 q 1182 354 1140 201 q 1224 553 1224 507 q 1176 615 1224 615 q 1090 581 1138 615 q 998 490 1042 547 q 924 344 954 432 q 894 165 894 256 q 924 33 894 74 q 768 -35 850 -35 q 608 138 608 -35 q 650 354 608 201 q 692 553 692 507 q 644 615 692 615 q 558 581 606 615 q 466 490 510 547 q 392 344 422 432 q 363 165 363 256 q 392 33 363 74 q 236 -35 318 -35 q 76 138 76 -35 q 105 353 76 193 q 164 644 133 513 l 92 756 q 346 833 229 833 q 463 728 463 833 q 431 586 463 658 l 444 579 q 808 833 593 833 q 931 794 886 833 q 976 678 976 756 q 963 586 976 636 z "},"n":{"ha":1053,"x_min":76,"x_max":990,"o":"m 236 -35 q 195 -35 236 -35 q 115 8 154 -35 q 76 122 76 51 q 105 353 76 193 q 164 644 133 513 l 92 756 q 346 833 229 833 q 463 728 463 833 q 431 586 463 658 l 444 579 q 822 833 593 833 q 990 665 990 833 q 949 421 990 593 q 908 161 908 249 q 938 33 908 74 q 782 -35 864 -35 q 622 138 622 -35 q 664 354 622 201 q 706 553 706 507 q 658 615 706 615 q 569 581 619 615 q 473 490 519 547 q 394 344 426 432 q 363 165 363 256 q 392 33 363 74 q 236 -35 318 -35 z "},"o":{"ha":993,"x_min":63,"x_max":938,"o":"m 747 728 q 881 665 825 728 q 938 484 938 603 q 896 265 938 365 q 786 100 854 164 q 632 1 718 36 q 456 -35 546 -35 q 168 65 274 -35 q 63 331 63 165 q 206 694 63 554 q 572 833 350 833 q 672 822 622 833 q 689 718 688 776 q 747 728 718 728 m 576 535 q 595 622 576 574 q 656 700 614 671 q 403 551 472 661 q 343 357 343 457 q 384 197 343 257 q 489 136 425 136 q 689 321 631 136 q 576 535 576 390 z "},"p":{"ha":1064,"x_min":76,"x_max":1001,"o":"m 231 -276 q 188 -276 231 -276 q 110 -234 144 -276 q 76 -112 76 -192 q 110 210 76 -32 q 176 622 144 451 l 99 733 q 247 809 185 783 q 371 835 310 835 q 471 703 471 835 q 465 629 471 685 l 479 622 q 596 778 519 722 q 776 835 672 835 q 940 741 879 835 q 1001 508 1001 647 q 871 169 1001 322 q 700 48 807 94 q 461 1 593 1 q 356 8 421 1 q 351 -82 351 -40 q 394 -208 351 -171 q 231 -276 317 -276 m 413 299 l 381 138 q 649 248 549 142 q 750 481 750 354 q 724 585 750 546 q 650 625 699 625 q 413 299 478 625 z "},"q":{"ha":1024,"x_min":56,"x_max":960,"o":"m 538 -187 q 538 -167 538 -187 q 556 -42 538 -146 q 581 100 575 63 l 567 107 q 446 2 515 39 q 307 -35 376 -35 q 128 49 200 -35 q 56 292 56 133 q 175 661 56 501 q 330 786 233 739 q 534 833 426 833 q 729 786 642 833 q 835 799 781 799 q 960 663 960 799 q 931 518 960 640 q 846 -64 846 151 l 915 -175 q 658 -276 779 -276 q 566 -253 594 -276 q 538 -187 538 -229 m 449 174 q 603 265 539 174 q 672 694 635 476 q 604 703 635 703 q 444 650 511 703 q 318 375 318 554 q 353 232 318 290 q 449 174 388 174 z "},"r":{"ha":735,"x_min":76,"x_max":763,"o":"m 76 138 q 105 353 76 193 q 164 644 133 513 l 92 756 q 335 833 265 833 q 406 744 406 833 q 360 542 406 696 l 374 535 q 622 833 474 833 q 726 792 690 833 q 763 699 763 750 q 706 568 763 622 q 535 514 649 514 q 363 160 363 514 q 392 33 363 74 q 233 -35 306 -35 q 76 138 76 -35 z "},"s":{"ha":893,"x_min":56,"x_max":838,"o":"m 519 649 q 438 605 468 633 q 383 524 407 576 q 714 424 618 489 q 810 238 810 358 q 767 105 810 161 q 658 19 724 49 q 407 -35 531 -35 q 56 117 56 -35 q 124 269 56 193 q 228 186 158 221 q 365 151 299 151 q 504 253 481 151 q 199 347 293 278 q 104 543 104 417 q 170 711 104 643 q 334 806 236 779 q 555 833 432 833 q 758 787 678 833 q 838 674 838 740 q 791 571 838 607 q 690 535 744 535 q 590 564 635 535 q 519 649 544 593 z "},"t":{"ha":661,"x_min":83,"x_max":647,"o":"m 93 501 q 83 574 83 540 q 124 676 83 642 q 228 711 164 711 q 190 868 228 783 q 315 944 258 918 q 433 969 371 969 q 520 947 496 969 q 544 876 544 924 q 525 729 544 829 q 638 753 581 738 q 647 678 647 724 q 612 592 647 632 q 508 553 576 553 l 488 553 q 438 204 438 326 q 481 33 438 82 q 315 -35 403 -35 q 190 17 228 -35 q 151 179 151 69 q 200 529 151 246 q 93 501 144 519 z "},"u":{"ha":1061,"x_min":90,"x_max":1007,"o":"m 310 -35 q 139 25 188 -35 q 90 176 90 85 q 121 425 90 267 q 151 654 151 583 q 122 765 151 725 q 340 833 251 833 q 423 810 397 833 q 449 736 449 788 q 406 484 449 685 q 364 236 364 283 q 390 162 364 189 q 460 135 417 135 q 551 169 503 135 q 631 265 600 203 q 707 621 650 378 l 624 732 q 890 833 764 833 q 980 810 953 833 q 1007 741 1007 788 q 956 475 1007 694 q 906 163 906 256 q 949 33 906 71 q 785 -35 871 -35 q 663 3 700 -35 q 625 101 625 40 l 611 108 q 484 3 565 42 q 310 -35 403 -35 z "},"v":{"ha":976,"x_min":63,"x_max":942,"o":"m 132 153 q 138 535 132 153 q 63 774 138 696 q 221 833 135 833 q 374 733 333 833 q 408 473 408 647 q 401 135 408 299 l 449 135 q 660 711 660 578 q 647 774 660 743 q 833 833 750 833 q 942 703 942 833 q 911 553 942 643 q 817 323 881 464 q 751 176 754 182 l 769 96 q 603 4 711 43 q 374 -35 494 -35 q 192 9 253 -35 q 132 153 132 53 z "},"w":{"ha":1342,"x_min":63,"x_max":1307,"o":"m 133 124 q 138 535 138 426 q 63 774 138 696 q 221 833 135 833 q 368 744 328 833 q 408 476 408 654 q 401 135 408 299 l 449 135 q 588 446 564 333 q 567 609 586 517 q 526 739 549 701 q 590 783 547 765 q 686 800 633 800 q 784 768 739 800 q 829 674 829 736 q 817 600 829 635 q 792 528 804 565 q 771 468 779 492 l 765 135 l 813 135 q 958 456 892 288 q 1024 711 1024 624 q 1011 774 1024 743 q 1193 833 1106 833 q 1307 703 1307 833 q 1276 553 1307 643 q 1183 323 1246 464 q 1117 176 1119 182 l 1136 96 q 973 10 1082 54 q 774 -35 864 -35 q 600 92 629 -35 q 324 -35 469 -35 q 188 2 243 -35 q 133 124 133 39 z "},"x":{"ha":957,"x_min":7,"x_max":936,"o":"m 468 124 l 401 246 q 310 89 310 161 q 321 25 310 54 q 135 -35 222 -35 q 42 2 76 -35 q 7 99 7 39 q 85 265 7 188 q 269 393 164 342 l 310 413 l 226 565 q 65 701 172 665 q 290 833 151 833 q 396 799 353 833 q 489 674 439 765 l 550 561 q 633 710 633 640 q 622 774 633 744 q 808 833 721 833 q 901 797 867 833 q 936 700 936 760 q 858 534 936 611 q 674 406 779 457 l 643 390 l 731 232 q 892 96 785 129 q 665 -35 804 -35 q 560 -1 601 -35 q 468 124 518 32 z "},"y":{"ha":965,"x_min":35,"x_max":924,"o":"m 461 28 q 331 4 396 4 q 221 43 265 4 q 169 149 176 82 q 157 342 163 215 q 146 522 151 469 q 35 774 128 699 q 199 833 100 833 q 293 805 253 833 q 358 730 333 776 q 397 610 382 683 q 421 279 421 488 q 417 158 421 228 l 497 158 q 640 685 640 544 q 619 774 640 732 q 789 833 717 833 q 924 678 924 833 q 810 243 924 554 q 786 176 789 186 q 285 -326 610 -326 q 122 -284 186 -326 q 58 -173 58 -242 q 110 -29 58 -104 q 276 -124 176 -124 q 383 -86 333 -124 q 461 28 432 -49 z "},"z":{"ha":867,"x_min":21,"x_max":839,"o":"m 306 35 q 160 -25 229 -25 q 56 14 90 -25 q 21 112 21 53 q 64 221 21 171 q 186 281 107 271 l 414 522 q 176 574 242 528 q 111 714 111 619 q 126 840 111 751 q 342 770 219 801 q 533 736 464 739 q 599 806 556 779 q 703 833 643 833 q 801 797 764 833 q 839 703 839 761 q 738 557 839 601 l 450 228 q 593 199 540 200 l 782 272 q 811 130 811 197 q 747 14 811 63 q 593 -35 683 -35 q 403 0 503 -35 q 306 35 368 11 z "},"{":{"ha":675,"x_min":101,"x_max":717,"o":"m 243 418 q 190 410 222 410 q 130 435 158 410 q 101 496 101 460 q 130 558 101 532 q 199 583 158 583 q 269 557 240 583 q 240 807 240 661 q 325 1049 240 983 q 431 1099 376 1089 q 589 1111 500 1111 q 717 974 717 1111 q 710 901 717 925 q 628 919 689 911 q 529 928 567 928 q 440 628 486 717 q 315 488 394 540 q 407 226 407 385 q 383 -35 407 199 q 479 -26 421 -35 q 558 -8 538 -18 q 568 -81 568 -42 q 461 -218 568 -218 q 205 -165 285 -218 q 125 21 125 -111 q 156 206 125 96 q 243 418 186 315 z "},"|":{"ha":665,"x_min":153,"x_max":506,"o":"m 153 -233 q 202 41 194 -135 q 217 550 210 217 q 231 1053 224 883 q 267 1174 233 1133 q 378 1214 300 1214 q 506 1167 457 1214 q 443 526 443 1053 q 451 143 443 375 q 460 -208 460 -89 q 347 -304 460 -304 q 153 -233 217 -304 z "},"}":{"ha":675,"x_min":-42,"x_max":574,"o":"m 431 474 q 483 483 450 483 q 545 458 517 483 q 574 397 574 433 q 545 335 574 361 q 475 310 517 310 q 404 336 433 310 q 435 86 435 232 q 350 -156 435 -90 q 244 -206 299 -196 q 86 -218 175 -218 q -42 -81 -42 -218 q -35 -8 -42 -32 q 47 -26 -14 -18 q 146 -35 108 -35 q 235 265 189 176 q 360 406 281 353 q 268 667 268 508 q 292 928 268 694 q 196 919 254 928 q 117 901 138 911 q 107 974 107 935 q 214 1111 107 1111 q 470 1058 390 1111 q 550 872 550 1004 q 519 687 550 797 q 431 474 488 576 z "},"~":{"ha":1018,"x_min":135,"x_max":883,"o":"m 831 456 q 676 492 760 492 q 444 433 593 492 q 218 375 296 375 q 135 472 135 375 q 189 625 135 546 q 338 599 257 599 q 551 652 418 599 q 756 706 685 706 q 883 596 883 706 q 831 456 883 525 z "},"¡":{"ha":636,"x_min":63,"x_max":553,"o":"m 349 399 q 446 281 446 399 q 433 105 446 251 q 419 -103 419 -42 q 454 -197 419 -164 q 213 -290 363 -290 q 63 -147 63 -290 q 82 -12 63 -82 q 120 113 101 57 q 151 199 139 168 q 183 283 163 231 q 207 346 203 335 q 276 385 235 371 q 349 399 317 399 m 382 511 q 348 511 382 511 q 272 553 314 511 q 229 662 229 596 q 281 781 229 728 q 400 833 332 833 q 510 791 468 833 q 553 683 553 749 q 501 564 553 617 q 382 511 450 511 z "},"¢":{"ha":921,"x_min":89,"x_max":832,"o":"m 386 -187 q 342 -110 342 -187 q 379 86 342 -33 q 166 193 243 107 q 89 407 89 279 q 201 703 89 582 q 492 854 313 825 q 508 968 508 931 q 506 1028 508 1006 q 625 1103 581 1103 q 665 1036 665 1103 q 631 861 665 969 q 825 715 825 849 q 790 578 825 653 q 568 632 704 632 q 471 625 514 632 q 413 533 435 593 q 390 408 390 472 q 419 300 390 344 q 497 256 447 256 q 583 297 547 256 q 622 415 619 339 q 832 342 832 411 q 743 177 832 256 q 515 83 654 99 q 497 -47 497 0 q 503 -115 497 -94 q 386 -187 435 -187 z "},"£":{"ha":922,"x_min":24,"x_max":858,"o":"m 404 289 q 682 244 582 244 l 842 308 q 858 183 858 249 q 799 20 858 75 q 654 -35 739 -35 q 500 -17 569 -35 q 326 38 431 0 q 170 -26 244 -26 q 60 15 96 -26 q 24 117 24 57 q 57 225 24 178 q 153 293 90 272 l 156 378 q 89 371 117 371 q 35 404 35 371 q 101 510 35 444 q 164 507 113 507 q 186 689 171 607 q 310 903 210 828 q 551 979 411 979 q 846 797 846 979 q 808 642 846 704 q 506 707 701 707 q 479 542 506 661 q 637 568 575 568 q 699 531 699 568 q 633 426 699 486 q 574 432 615 432 q 446 413 533 432 q 404 289 424 339 z "},"¥":{"ha":1011,"x_min":63,"x_max":982,"o":"m 194 400 q 140 429 140 400 q 201 522 140 465 q 229 519 211 519 q 63 911 153 826 q 290 972 169 972 q 483 733 483 972 q 453 486 483 639 l 508 486 q 593 668 551 557 q 635 868 635 779 q 628 925 635 904 q 839 972 724 972 q 982 883 982 972 q 838 596 982 815 q 860 597 844 597 q 924 564 924 597 q 864 472 924 531 q 822 478 846 478 q 753 472 797 478 l 685 376 q 782 389 744 389 q 846 356 846 389 q 786 264 846 322 q 728 269 768 269 q 607 249 688 269 q 600 141 600 208 q 632 17 600 74 q 446 -35 535 -35 q 276 174 276 -35 q 278 215 276 201 q 142 192 194 192 q 90 221 90 192 q 151 314 90 257 q 194 311 164 311 q 272 322 224 311 l 256 406 q 194 400 226 400 z "},"¦":{"ha":604,"x_min":153,"x_max":444,"o":"m 153 615 q 180 773 174 688 q 186 1038 186 858 q 214 1172 186 1131 q 317 1214 242 1214 q 444 1167 393 1214 q 413 926 413 1097 q 419 752 413 831 q 426 639 426 674 q 322 556 426 556 q 153 615 218 556 m 153 -244 q 180 -87 174 -172 q 186 178 186 -1 q 214 313 186 271 q 317 354 242 354 q 444 307 393 354 q 413 67 413 238 q 419 -108 413 -29 q 426 -221 426 -186 q 322 -304 426 -304 q 153 -244 218 -304 z "},"§":{"ha":1032,"x_min":24,"x_max":990,"o":"m 125 742 q 258 989 125 903 q 583 1075 390 1075 q 990 867 990 1075 q 940 671 990 768 q 788 787 882 742 q 593 832 693 832 q 417 706 458 832 q 781 554 679 639 q 889 343 882 469 q 533 460 803 429 q 338 492 433 471 q 184 574 243 513 q 125 742 125 635 m 24 -51 q 75 144 24 49 q 228 28 133 74 q 422 -17 322 -17 q 597 108 557 -17 q 167 322 247 197 q 124 474 128 383 q 475 356 208 385 q 672 324 576 344 q 828 242 768 303 q 889 74 889 181 q 756 -174 889 -87 q 432 -260 624 -260 q 24 -51 24 -260 z "},"¨":{"ha":878,"x_min":119,"x_max":842,"o":"m 842 1065 q 842 1037 842 1065 q 790 967 842 1008 q 675 925 739 925 q 574 953 611 925 q 538 1029 538 981 q 592 1140 538 1100 q 708 1179 647 1179 q 805 1151 768 1179 q 842 1065 842 1122 m 424 1065 q 424 1037 424 1065 q 372 967 424 1008 q 257 925 321 925 q 156 953 193 925 q 119 1029 119 981 q 174 1140 119 1100 q 290 1179 229 1179 q 387 1151 350 1179 q 424 1065 424 1122 z "},"©":{"ha":1244,"x_min":118,"x_max":1126,"o":"m 214 697 q 214 597 214 697 q 321 396 214 496 q 577 296 428 296 q 834 363 726 296 q 996 534 942 431 q 1050 754 1050 638 q 949 1016 1050 900 q 658 1132 847 1132 q 341 1015 468 1132 q 214 697 214 899 m 892 298 q 857 275 892 298 q 745 231 822 253 q 583 208 668 208 q 414 238 497 208 q 264 326 331 268 q 158 476 197 383 q 118 685 118 569 q 290 1091 118 938 q 746 1244 463 1244 q 867 1220 836 1244 q 903 1136 897 1196 q 1070 976 1014 1076 q 1126 764 1126 875 q 1096 563 1126 653 q 1013 408 1065 472 q 892 298 961 343 m 605 446 q 555 446 605 446 q 443 508 504 446 q 382 686 382 569 q 473 900 382 803 q 714 997 564 997 q 816 972 776 997 q 856 900 856 946 q 826 829 856 854 q 753 804 796 804 q 639 868 678 804 q 571 792 600 849 q 542 681 542 736 q 560 592 542 625 q 613 558 579 558 q 673 593 647 558 q 699 676 699 628 q 806 665 774 676 q 838 614 838 653 q 772 499 838 553 q 605 446 706 446 z "},"ª":{"ha":767,"x_min":58,"x_max":697,"o":"m 542 401 q 438 517 444 401 l 426 517 q 347 434 396 467 q 249 401 297 401 q 110 465 163 401 q 58 636 58 529 q 167 906 58 797 q 438 1015 276 1015 q 524 1006 488 1015 q 529 964 529 989 q 615 992 578 992 q 697 904 697 992 q 668 741 697 874 q 639 551 639 608 q 675 463 639 494 q 542 401 606 401 m 324 827 q 293 795 324 827 q 263 682 263 764 q 322 600 263 600 q 439 688 392 600 q 471 896 449 793 q 324 827 386 890 z "},"«":{"ha":964,"x_min":81,"x_max":900,"o":"m 826 338 q 744 25 814 25 q 626 88 696 25 q 519 214 556 151 q 514 294 514 242 q 553 584 514 435 q 647 740 592 733 q 819 763 771 750 q 900 788 868 776 q 835 521 900 586 q 769 478 803 489 q 705 467 736 467 q 618 476 674 467 l 608 415 q 826 338 704 338 m 393 338 q 311 25 381 25 q 192 88 263 25 q 86 214 122 151 q 81 294 81 242 q 119 584 81 435 q 214 740 158 733 q 386 763 338 750 q 467 788 435 776 q 401 521 467 586 q 336 478 369 489 q 272 467 303 467 q 185 476 240 467 l 175 415 q 393 338 271 338 z "},"¬":{"ha":1018,"x_min":132,"x_max":886,"o":"m 360 611 l 769 619 q 886 514 886 619 q 850 365 886 467 q 814 222 814 263 q 825 146 814 182 q 689 113 761 113 q 600 189 600 113 q 631 328 600 239 q 664 426 661 417 q 441 408 603 424 q 193 393 279 393 q 132 478 132 393 q 179 636 132 563 q 360 611 247 611 z "},"®":{"ha":1244,"x_min":118,"x_max":1126,"o":"m 214 697 q 214 597 214 697 q 321 396 214 496 q 577 296 428 296 q 834 363 726 296 q 996 534 942 431 q 1050 754 1050 638 q 949 1016 1050 900 q 658 1132 847 1132 q 341 1015 468 1132 q 214 697 214 899 m 892 298 q 857 275 892 298 q 745 231 822 253 q 583 208 668 208 q 414 238 497 208 q 264 326 331 268 q 158 476 197 383 q 118 685 118 569 q 290 1091 118 938 q 746 1244 463 1244 q 867 1220 836 1244 q 903 1136 897 1196 q 1070 976 1014 1076 q 1126 764 1126 875 q 1096 563 1126 653 q 1013 408 1065 472 q 892 298 961 343 m 654 567 l 629 640 q 551 653 589 640 q 543 585 543 607 q 565 478 543 515 q 473 444 519 444 q 406 472 426 444 q 385 555 385 500 q 431 865 385 610 l 392 944 q 535 997 475 997 q 625 975 596 997 q 736 997 679 997 q 833 951 793 997 q 872 842 872 906 q 776 678 872 736 q 894 486 831 521 q 847 458 879 471 q 777 446 815 446 q 708 471 739 446 q 654 567 678 496 m 583 732 q 676 763 643 732 q 708 828 708 793 q 690 883 708 863 q 642 903 671 903 q 596 899 613 903 q 567 733 582 793 q 583 732 572 732 z "},"¯":{"ha":771,"x_min":97,"x_max":674,"o":"m 232 1156 l 564 1164 q 674 1065 674 1164 q 653 965 674 1007 q 551 985 618 985 q 345 968 485 985 q 151 951 206 951 q 97 1021 97 951 q 142 1172 97 1090 q 232 1156 182 1156 z "},"°":{"ha":722,"x_min":69,"x_max":653,"o":"m 653 953 q 560 733 653 818 q 338 649 468 649 q 138 709 207 649 q 69 868 69 769 q 162 1088 69 1003 q 385 1172 254 1172 q 584 1112 515 1172 q 653 953 653 1051 m 335 768 q 419 826 382 768 q 457 958 457 885 q 367 1050 457 1050 q 325 1047 356 1050 q 263 876 263 968 q 282 799 263 831 q 335 768 301 768 z "},"±":{"ha":1018,"x_min":139,"x_max":879,"o":"m 360 40 l 769 49 q 879 -57 879 49 q 854 -167 879 -118 q 706 -144 800 -144 q 444 -161 613 -144 q 193 -178 276 -178 q 139 -89 139 -178 q 182 64 139 0 q 360 40 257 40 m 193 393 q 139 482 139 393 q 182 635 139 571 q 406 611 257 611 q 403 774 403 719 q 508 883 403 883 q 618 858 569 883 q 596 725 596 804 q 599 615 596 646 q 769 619 683 619 q 879 514 879 619 q 854 404 879 453 q 701 426 800 426 q 615 424 671 426 q 629 197 629 271 q 540 143 629 143 q 388 186 451 143 q 411 406 411 261 q 193 393 279 393 z "},"²":{"ha":694,"x_min":3,"x_max":651,"o":"m 185 549 l 208 547 q 344 735 344 663 q 303 782 344 782 q 214 676 249 782 q 113 706 147 676 q 79 783 79 735 q 152 915 79 858 q 362 972 225 972 q 560 915 499 972 q 621 781 621 857 q 428 496 621 649 q 499 489 467 489 l 631 540 q 651 435 651 492 q 603 310 651 351 q 473 268 554 268 q 249 317 392 268 q 132 275 196 275 q 35 310 68 275 q 3 401 3 346 q 50 503 3 457 q 185 549 97 549 z "},"³":{"ha":654,"x_min":40,"x_max":583,"o":"m 497 636 q 579 490 579 581 q 482 333 579 399 q 232 268 385 268 q 40 392 40 268 q 78 471 40 442 q 159 500 115 500 q 241 479 203 500 q 297 418 279 458 q 327 450 315 425 q 339 504 339 475 q 326 550 339 533 q 250 525 289 525 q 192 545 211 525 q 172 593 172 565 q 339 675 172 675 q 349 722 349 693 q 328 769 349 750 q 282 789 308 789 q 233 770 256 789 q 206 711 211 751 q 113 742 146 711 q 81 814 81 772 q 146 924 81 876 q 336 971 211 971 q 522 915 461 971 q 583 790 583 858 q 497 636 583 697 z "},"´":{"ha":661,"x_min":97,"x_max":564,"o":"m 175 907 q 123 933 144 907 q 97 1013 101 958 q 230 1082 157 1026 q 369 1184 303 1138 q 486 1231 435 1231 q 564 1099 564 1231 q 550 997 564 1044 q 518 1000 531 1000 q 344 953 454 1000 q 175 907 233 907 z "},"µ":{"ha":1071,"x_min":51,"x_max":1017,"o":"m 293 -6 q 406 -269 293 -150 q 322 -314 356 -301 q 244 -326 289 -326 q 99 -264 146 -326 q 51 -106 51 -201 q 106 261 51 -11 q 161 629 161 533 q 132 765 161 725 q 350 833 261 833 q 433 810 407 833 q 458 736 458 788 q 416 484 458 685 q 374 236 374 283 q 400 162 374 189 q 477 135 426 135 q 569 169 528 135 q 633 263 611 203 q 666 382 654 322 q 690 513 678 442 q 717 621 703 583 l 633 732 q 900 833 774 833 q 990 810 963 833 q 1017 741 1017 788 q 966 475 1017 694 q 915 163 915 256 q 958 33 915 71 q 795 -35 881 -35 q 672 3 710 -35 q 635 101 635 40 l 621 108 q 400 -33 525 -33 q 293 -6 339 -33 z "},"¶":{"ha":1017,"x_min":82,"x_max":933,"o":"m 621 -276 q 439 -61 439 -276 q 510 256 439 78 q 671 544 581 435 l 642 561 q 340 367 524 367 q 149 447 217 367 q 82 646 82 528 q 194 936 82 804 q 337 1038 249 999 q 533 1076 425 1076 q 839 974 728 1076 q 907 872 881 936 q 933 731 933 808 q 896 513 933 654 q 821 209 858 372 q 783 -82 783 46 q 826 -208 783 -171 q 621 -276 725 -276 z "},"·":{"ha":463,"x_min":69,"x_max":393,"o":"m 222 250 q 188 250 222 250 q 112 292 154 250 q 69 401 69 335 q 121 519 69 467 q 240 572 172 572 q 351 530 308 572 q 393 422 393 488 q 342 303 393 356 q 222 250 290 250 z "},"¸":{"ha":921,"x_min":99,"x_max":599,"o":"m 254 39 l 357 39 q 536 -17 474 39 q 599 -162 599 -74 q 519 -324 599 -250 q 320 -399 440 -399 q 149 -353 200 -399 q 99 -244 99 -308 q 151 -132 99 -181 q 285 -83 204 -83 q 246 -181 246 -118 q 266 -240 246 -219 q 322 -261 286 -261 q 393 -226 358 -261 q 428 -135 428 -192 q 383 -29 428 -79 q 254 39 339 21 z "},"¹":{"ha":524,"x_min":-3,"x_max":458,"o":"m 122 440 q 160 683 122 500 q 48 724 94 683 q -3 851 1 765 q 142 892 72 861 q 265 947 213 922 q 358 972 318 972 q 458 878 458 972 q 423 678 458 839 q 388 433 388 517 q 417 315 388 350 q 267 268 343 268 q 122 440 122 268 z "},"º":{"ha":700,"x_min":43,"x_max":643,"o":"m 43 663 q 141 917 43 819 q 392 1015 239 1015 q 467 1006 435 1015 q 481 942 478 975 q 506 944 497 944 q 603 898 563 944 q 643 765 643 851 q 544 501 643 600 q 317 401 444 401 q 117 473 190 401 q 43 663 43 544 m 335 542 q 446 608 404 542 q 488 740 488 674 q 399 876 488 876 q 285 810 328 876 q 242 678 242 744 q 335 542 242 542 z "},"»":{"ha":964,"x_min":64,"x_max":883,"o":"m 138 465 q 219 778 150 778 q 338 715 268 778 q 444 589 408 651 q 450 508 450 561 q 411 219 450 368 q 317 63 372 69 q 144 40 193 53 q 64 15 96 26 q 129 282 64 217 q 194 325 161 314 q 259 336 228 336 q 346 326 290 336 l 356 388 q 138 465 260 465 m 571 465 q 653 778 583 778 q 772 715 701 778 q 878 589 842 651 q 883 508 883 561 q 844 219 883 368 q 750 63 806 69 q 578 40 626 53 q 497 15 529 26 q 563 282 497 217 q 628 325 594 314 q 692 336 661 336 q 779 326 724 336 l 789 388 q 571 465 693 465 z "},"¼":{"ha":1597,"x_min":92,"x_max":1519,"o":"m 413 18 q 557 246 476 89 q 715 572 618 371 q 869 890 811 772 q 1017 1007 926 1007 q 1110 971 1069 1007 q 971 758 1046 908 q 785 359 896 607 q 640 38 675 111 q 533 -35 604 -35 q 413 18 461 -35 m 217 440 q 254 683 217 500 q 142 724 189 683 q 92 851 96 765 q 237 892 167 861 q 360 947 307 922 q 453 972 413 972 q 553 878 553 972 q 517 678 553 839 q 482 433 482 517 q 511 315 482 350 q 361 268 438 268 q 217 440 217 268 m 894 193 q 959 390 894 238 q 1024 608 1024 542 q 1011 651 1024 635 q 1142 678 1088 678 q 1293 572 1293 678 q 1248 413 1293 500 q 1129 250 1203 325 l 1211 250 q 1271 379 1236 319 q 1358 424 1300 404 q 1457 444 1417 444 q 1508 437 1497 444 q 1519 413 1519 429 q 1497 283 1519 396 q 1475 108 1475 169 q 1506 21 1475 47 q 1344 -26 1425 -26 q 1224 8 1263 -26 q 1182 100 1186 43 q 1082 93 1129 93 q 894 193 894 93 z "},"½":{"ha":1597,"x_min":72,"x_max":1507,"o":"m 393 18 q 538 246 457 89 q 695 572 599 371 q 849 890 792 772 q 997 1007 907 1007 q 1090 971 1050 1007 q 951 758 1026 908 q 766 359 876 607 q 620 38 656 111 q 513 -35 585 -35 q 393 18 442 -35 m 197 440 q 235 683 197 500 q 123 724 169 683 q 72 851 76 765 q 217 892 147 861 q 340 947 288 922 q 433 972 393 972 q 533 878 533 972 q 498 678 533 839 q 463 433 463 517 q 492 315 463 350 q 342 268 418 268 q 197 440 197 268 m 1040 254 l 1064 253 q 1200 440 1200 368 q 1158 488 1200 488 q 1069 382 1104 488 q 969 411 1003 382 q 935 489 935 440 q 1008 621 935 564 q 1217 678 1081 678 q 1415 620 1354 678 q 1476 486 1476 563 q 1283 201 1476 354 q 1354 194 1322 194 l 1486 246 q 1507 140 1507 197 q 1458 15 1507 57 q 1328 -26 1410 -26 q 1104 22 1247 -26 q 988 -19 1051 -19 q 891 16 924 -19 q 858 107 858 51 q 906 208 858 163 q 1040 254 953 254 z "},"¾":{"ha":1597,"x_min":50,"x_max":1549,"o":"m 442 18 q 586 246 506 89 q 744 572 647 371 q 898 890 840 772 q 1046 1007 956 1007 q 1139 971 1099 1007 q 1000 758 1075 908 q 815 359 925 607 q 669 38 704 111 q 562 -35 633 -35 q 442 18 490 -35 m 507 636 q 589 490 589 581 q 492 333 589 399 q 242 268 394 268 q 50 392 50 268 q 88 471 50 442 q 169 500 125 500 q 251 479 213 500 q 307 418 289 458 q 337 450 325 425 q 349 504 349 475 q 336 550 349 533 q 260 525 299 525 q 201 545 221 525 q 182 593 182 565 q 349 675 182 675 q 358 722 358 693 q 338 769 358 750 q 292 789 318 789 q 243 770 265 789 q 215 711 221 751 q 123 742 156 711 q 90 814 90 772 q 156 924 90 876 q 346 971 221 971 q 532 915 471 971 q 593 790 593 858 q 507 636 593 697 m 924 193 q 988 390 924 238 q 1053 608 1053 542 q 1040 651 1053 635 q 1171 678 1117 678 q 1322 572 1322 678 q 1277 413 1322 500 q 1158 250 1232 325 l 1240 250 q 1300 379 1265 319 q 1388 424 1329 404 q 1486 444 1446 444 q 1538 437 1526 444 q 1549 413 1549 429 q 1526 283 1549 396 q 1504 108 1504 169 q 1535 21 1504 47 q 1373 -26 1454 -26 q 1253 8 1292 -26 q 1211 100 1215 43 q 1111 93 1158 93 q 924 193 924 93 z "},"¿":{"ha":836,"x_min":60,"x_max":771,"o":"m 539 269 q 407 194 457 249 q 357 85 357 140 q 464 -35 357 -35 q 636 129 583 -35 q 736 81 701 122 q 771 -19 771 39 q 681 -199 771 -119 q 417 -278 592 -278 q 151 -186 243 -278 q 60 36 60 -94 q 158 319 60 206 q 381 433 256 433 q 494 388 450 433 q 539 269 539 342 m 510 833 q 544 833 510 833 q 620 791 578 833 q 663 683 663 749 q 611 564 663 617 q 492 511 560 511 q 381 553 424 511 q 339 662 339 596 q 390 781 339 728 q 510 833 442 833 z "},"À":{"ha":1013,"x_min":-8,"x_max":1006,"o":"m 882 803 l 871 472 q 899 185 871 301 q 1006 24 928 68 q 811 -36 910 -36 q 597 244 638 -36 l 314 244 q 288 106 288 154 q 299 29 288 58 q 115 -36 196 -36 q -8 114 -8 -36 q 38 303 -8 189 q 162 564 85 417 q 260 758 239 711 q 225 906 244 833 q 365 981 297 956 q 510 1007 432 1007 q 619 972 589 1007 q 750 1007 699 1007 q 826 990 801 1007 q 863 942 851 974 q 882 803 882 886 m 603 771 l 558 771 q 372 390 433 529 l 588 390 q 603 771 588 542 m 776 1046 q 608 1092 718 1046 q 433 1139 497 1139 q 401 1136 421 1139 q 388 1238 388 1183 q 465 1369 388 1369 q 583 1323 517 1369 q 722 1221 649 1276 q 854 1151 794 1165 q 828 1072 850 1097 q 776 1046 807 1046 z "},"Á":{"ha":1013,"x_min":-8,"x_max":1006,"o":"m 882 803 l 871 472 q 899 185 871 301 q 1006 24 928 68 q 811 -36 910 -36 q 597 244 638 -36 l 314 244 q 288 106 288 154 q 299 29 288 58 q 115 -36 196 -36 q -8 114 -8 -36 q 38 303 -8 189 q 162 564 85 417 q 260 758 239 711 q 225 906 244 833 q 365 981 297 956 q 510 1007 432 1007 q 619 972 589 1007 q 750 1007 699 1007 q 826 990 801 1007 q 863 942 851 974 q 882 803 882 886 m 603 771 l 558 771 q 372 390 433 529 l 588 390 q 603 771 588 542 m 465 1046 q 413 1072 435 1046 q 388 1151 392 1097 q 520 1221 447 1165 q 659 1323 593 1276 q 776 1369 725 1369 q 854 1238 854 1369 q 840 1136 854 1183 q 808 1139 821 1139 q 634 1092 744 1139 q 465 1046 524 1046 z "},"Â":{"ha":1013,"x_min":-8,"x_max":1006,"o":"m 882 803 l 871 472 q 899 185 871 301 q 1006 24 928 68 q 811 -36 910 -36 q 597 244 638 -36 l 314 244 q 288 106 288 154 q 299 29 288 58 q 115 -36 196 -36 q -8 114 -8 -36 q 38 303 -8 189 q 162 564 85 417 q 260 758 239 711 q 225 906 244 833 q 365 981 297 956 q 510 1007 432 1007 q 619 972 589 1007 q 750 1007 699 1007 q 826 990 801 1007 q 863 942 851 974 q 882 803 882 886 m 603 771 l 558 771 q 372 390 433 529 l 588 390 q 603 771 588 542 m 903 1314 l 889 1143 q 908 1065 889 1100 q 799 1054 865 1054 q 705 1083 733 1054 q 676 1168 676 1113 q 686 1279 676 1189 l 650 1279 q 567 1071 567 1176 q 411 1054 490 1054 q 332 1081 332 1054 q 504 1331 332 1139 q 599 1355 528 1344 q 740 1365 669 1365 q 903 1314 903 1365 z "},"Ã":{"ha":1013,"x_min":-8,"x_max":1006,"o":"m 882 803 l 871 472 q 899 185 871 301 q 1006 24 928 68 q 811 -36 910 -36 q 597 244 638 -36 l 314 244 q 288 106 288 154 q 299 29 288 58 q 115 -36 196 -36 q -8 114 -8 -36 q 38 303 -8 189 q 162 564 85 417 q 260 758 239 711 q 225 906 244 833 q 365 981 297 956 q 510 1007 432 1007 q 619 972 589 1007 q 750 1007 699 1007 q 826 990 801 1007 q 863 942 851 974 q 882 803 882 886 m 603 771 l 558 771 q 372 390 433 529 l 588 390 q 603 771 588 542 m 864 1118 q 749 1146 808 1146 q 583 1105 689 1146 q 424 1064 476 1064 q 335 1151 335 1064 q 372 1297 335 1215 q 488 1269 428 1269 q 653 1310 547 1269 q 813 1351 760 1351 q 901 1264 901 1351 q 864 1118 901 1200 z "},"Ä":{"ha":1013,"x_min":-8,"x_max":1006,"o":"m 882 803 l 871 472 q 899 185 871 301 q 1006 24 928 68 q 811 -36 910 -36 q 597 244 638 -36 l 314 244 q 288 106 288 154 q 299 29 288 58 q 115 -36 196 -36 q -8 114 -8 -36 q 38 303 -8 189 q 162 564 85 417 q 260 758 239 711 q 225 906 244 833 q 365 981 297 956 q 510 1007 432 1007 q 619 972 589 1007 q 750 1007 699 1007 q 826 990 801 1007 q 863 942 851 974 q 882 803 882 886 m 603 771 l 558 771 q 372 390 433 529 l 588 390 q 603 771 588 542 m 982 1211 q 982 1183 982 1211 q 931 1113 982 1154 q 815 1071 879 1071 q 715 1099 751 1071 q 678 1175 678 1126 q 733 1285 678 1246 q 848 1325 788 1325 q 945 1297 908 1325 q 982 1211 982 1268 m 564 1211 q 564 1183 564 1211 q 513 1113 564 1154 q 397 1071 461 1071 q 297 1099 333 1071 q 260 1175 260 1126 q 315 1285 260 1246 q 430 1325 369 1325 q 527 1297 490 1325 q 564 1211 564 1268 z "},"Å":{"ha":1013,"x_min":-8,"x_max":1006,"o":"m 882 803 l 871 472 q 899 185 871 301 q 1006 24 928 68 q 811 -36 910 -36 q 597 244 638 -36 l 314 244 q 288 106 288 154 q 299 29 288 58 q 115 -36 196 -36 q -8 114 -8 -36 q 38 303 -8 189 q 162 564 85 417 q 260 758 239 711 q 225 906 244 833 q 365 981 297 956 q 510 1007 432 1007 q 619 972 589 1007 q 750 1007 699 1007 q 826 990 801 1007 q 863 942 851 974 q 882 803 882 886 m 603 771 l 558 771 q 372 390 433 529 l 588 390 q 603 771 588 542 m 529 1196 q 548 1133 529 1158 q 602 1107 567 1107 q 667 1149 638 1107 q 697 1243 697 1190 q 614 1322 697 1322 q 578 1319 606 1322 q 529 1196 529 1265 m 856 1242 q 784 1078 856 1140 q 606 1017 713 1017 q 443 1064 499 1017 q 388 1190 388 1111 q 459 1353 388 1292 q 638 1415 531 1415 q 800 1368 744 1415 q 856 1242 856 1321 z "},"Æ":{"ha":1343,"x_min":-8,"x_max":1371,"o":"m 979 342 l 881 342 q 867 189 867 258 l 1092 189 q 1304 243 1197 204 q 1313 175 1313 218 q 1265 29 1313 93 q 1132 -35 1217 -35 q 1002 -17 1088 -35 q 875 4 917 0 q 726 -36 808 -36 q 606 16 644 -36 q 567 179 567 68 q 582 342 567 231 l 342 342 q 288 103 288 200 q 299 29 288 58 q 115 -36 196 -36 q -8 114 -8 -36 q 38 303 -8 189 q 162 564 85 417 q 260 758 239 711 l 225 906 q 811 1008 544 1008 q 967 931 944 1008 q 1360 1001 1125 935 q 1371 911 1371 956 q 1297 742 1371 799 q 1106 685 1222 685 q 950 718 1028 685 q 910 504 943 679 l 999 504 q 1124 536 1019 504 q 1131 459 1131 513 q 1088 374 1131 406 q 979 342 1044 342 m 657 771 l 558 771 q 413 504 471 624 l 608 504 l 657 771 z "},"Ç":{"ha":949,"x_min":42,"x_max":935,"o":"m 42 426 q 83 624 42 524 q 201 811 125 725 q 401 952 278 897 q 655 1007 524 1007 q 860 958 786 1007 q 935 824 935 910 q 878 690 935 738 q 750 642 822 642 q 620 673 678 642 q 528 763 563 704 q 399 621 453 726 q 344 409 344 515 q 379 241 344 303 q 478 179 414 179 q 591 244 542 179 q 640 401 640 310 q 841 379 781 401 q 901 283 901 357 q 793 81 901 178 q 517 -32 685 -17 q 564 -154 564 -81 q 485 -324 564 -250 q 285 -399 406 -399 q 115 -353 165 -399 q 64 -244 64 -308 q 117 -132 64 -181 q 250 -83 169 -83 q 211 -181 211 -118 q 231 -240 211 -219 q 288 -261 251 -261 q 358 -226 324 -261 q 393 -131 393 -192 q 340 -21 393 -69 q 122 126 203 13 q 42 426 42 239 z "},"È":{"ha":860,"x_min":83,"x_max":888,"o":"m 243 -36 q 202 -36 243 -36 q 122 16 161 -36 q 83 172 83 68 q 171 758 83 275 l 97 907 q 383 1008 254 1008 q 485 931 465 1008 q 876 1001 642 935 q 888 911 888 956 q 813 742 888 799 q 622 685 739 685 q 467 718 543 685 q 428 514 456 656 q 515 504 479 504 q 640 536 572 515 q 647 459 647 513 q 604 374 647 406 q 508 342 561 342 q 399 354 454 342 q 383 189 383 267 l 608 189 q 821 243 714 204 q 829 175 829 218 q 781 29 829 93 q 649 -35 733 -35 q 519 -17 604 -35 q 392 4 433 0 q 243 -36 325 -36 m 722 1046 q 553 1092 664 1046 q 379 1139 443 1139 q 347 1136 367 1139 q 333 1238 333 1183 q 411 1369 333 1369 q 528 1323 463 1369 q 667 1221 594 1276 q 800 1151 740 1165 q 774 1072 796 1097 q 722 1046 753 1046 z "},"É":{"ha":860,"x_min":83,"x_max":888,"o":"m 243 -36 q 202 -36 243 -36 q 122 16 161 -36 q 83 172 83 68 q 171 758 83 275 l 97 907 q 383 1008 254 1008 q 485 931 465 1008 q 876 1001 642 935 q 888 911 888 956 q 813 742 888 799 q 622 685 739 685 q 467 718 543 685 q 428 514 456 656 q 515 504 479 504 q 640 536 572 515 q 647 459 647 513 q 604 374 647 406 q 508 342 561 342 q 399 354 454 342 q 383 189 383 267 l 608 189 q 821 243 714 204 q 829 175 829 218 q 781 29 829 93 q 649 -35 733 -35 q 519 -17 604 -35 q 392 4 433 0 q 243 -36 325 -36 m 432 1046 q 380 1072 401 1046 q 354 1151 358 1097 q 487 1221 414 1165 q 626 1323 560 1276 q 743 1369 692 1369 q 821 1238 821 1369 q 807 1136 821 1183 q 775 1139 788 1139 q 601 1092 711 1139 q 432 1046 490 1046 z "},"Ê":{"ha":860,"x_min":83,"x_max":888,"o":"m 243 -36 q 202 -36 243 -36 q 122 16 161 -36 q 83 172 83 68 q 171 758 83 275 l 97 907 q 383 1008 254 1008 q 485 931 465 1008 q 876 1001 642 935 q 888 911 888 956 q 813 742 888 799 q 622 685 739 685 q 467 718 543 685 q 428 514 456 656 q 515 504 479 504 q 640 536 572 515 q 647 459 647 513 q 604 374 647 406 q 508 342 561 342 q 399 354 454 342 q 383 189 383 267 l 608 189 q 821 243 714 204 q 829 175 829 218 q 781 29 829 93 q 649 -35 733 -35 q 519 -17 604 -35 q 392 4 433 0 q 243 -36 325 -36 m 811 1314 l 797 1143 q 817 1065 797 1100 q 708 1054 774 1054 q 613 1083 642 1054 q 585 1168 585 1113 q 594 1279 585 1189 l 558 1279 q 475 1071 475 1176 q 319 1054 399 1054 q 240 1081 240 1054 q 413 1331 240 1139 q 507 1355 436 1344 q 649 1365 578 1365 q 811 1314 811 1365 z "},"Ë":{"ha":860,"x_min":83,"x_max":928,"o":"m 243 -36 q 202 -36 243 -36 q 122 16 161 -36 q 83 172 83 68 q 171 758 83 275 l 97 907 q 383 1008 254 1008 q 485 931 465 1008 q 876 1001 642 935 q 888 911 888 956 q 813 742 888 799 q 622 685 739 685 q 467 718 543 685 q 428 514 456 656 q 515 504 479 504 q 640 536 572 515 q 647 459 647 513 q 604 374 647 406 q 508 342 561 342 q 399 354 454 342 q 383 189 383 267 l 608 189 q 821 243 714 204 q 829 175 829 218 q 781 29 829 93 q 649 -35 733 -35 q 519 -17 604 -35 q 392 4 433 0 q 243 -36 325 -36 m 928 1211 q 928 1183 928 1211 q 876 1113 928 1154 q 761 1071 825 1071 q 660 1099 697 1071 q 624 1175 624 1126 q 678 1285 624 1246 q 794 1325 733 1325 q 891 1297 854 1325 q 928 1211 928 1268 m 510 1211 q 510 1183 510 1211 q 458 1113 510 1154 q 343 1071 407 1071 q 242 1099 279 1071 q 206 1175 206 1126 q 260 1285 206 1246 q 376 1325 315 1325 q 473 1297 436 1325 q 510 1211 510 1268 z "},"Ì":{"ha":539,"x_min":90,"x_max":588,"o":"m 258 -36 q 213 -36 258 -36 q 129 16 168 -36 q 90 172 90 68 q 178 758 90 275 l 104 907 q 390 1008 261 1008 q 497 878 497 1008 q 444 558 497 835 q 390 228 390 281 q 432 26 390 93 q 258 -36 349 -36 m 510 1046 q 341 1092 451 1046 q 167 1139 231 1139 q 135 1136 154 1139 q 121 1238 121 1183 q 199 1369 121 1369 q 316 1323 250 1369 q 455 1221 382 1276 q 588 1151 528 1165 q 562 1072 583 1097 q 510 1046 540 1046 z "},"Í":{"ha":539,"x_min":90,"x_max":571,"o":"m 258 -36 q 213 -36 258 -36 q 129 16 168 -36 q 90 172 90 68 q 178 758 90 275 l 104 907 q 390 1008 261 1008 q 497 878 497 1008 q 444 558 497 835 q 390 228 390 281 q 432 26 390 93 q 258 -36 349 -36 m 182 1046 q 130 1072 151 1046 q 104 1151 108 1097 q 237 1221 164 1165 q 376 1323 310 1276 q 493 1369 442 1369 q 571 1238 571 1369 q 557 1136 571 1183 q 525 1139 538 1139 q 351 1092 461 1139 q 182 1046 240 1046 z "},"Î":{"ha":539,"x_min":67,"x_max":643,"o":"m 258 -36 q 213 -36 258 -36 q 129 16 168 -36 q 90 172 90 68 q 178 758 90 275 l 104 907 q 390 1008 261 1008 q 497 878 497 1008 q 444 558 497 835 q 390 228 390 281 q 432 26 390 93 q 258 -36 349 -36 m 638 1314 l 624 1143 q 643 1065 624 1100 q 534 1054 600 1054 q 440 1083 468 1054 q 411 1168 411 1113 q 421 1279 411 1189 l 385 1279 q 301 1071 301 1176 q 146 1054 225 1054 q 67 1081 67 1054 q 239 1331 67 1139 q 333 1355 263 1344 q 475 1365 404 1365 q 638 1314 638 1365 z "},"Ï":{"ha":539,"x_min":19,"x_max":742,"o":"m 258 -36 q 213 -36 258 -36 q 129 16 168 -36 q 90 172 90 68 q 178 758 90 275 l 104 907 q 390 1008 261 1008 q 497 878 497 1008 q 444 558 497 835 q 390 228 390 281 q 432 26 390 93 q 258 -36 349 -36 m 742 1211 q 742 1183 742 1211 q 690 1113 742 1154 q 575 1071 639 1071 q 474 1099 511 1071 q 438 1175 438 1126 q 492 1285 438 1246 q 608 1325 547 1325 q 705 1297 668 1325 q 742 1211 742 1268 m 324 1211 q 324 1183 324 1211 q 272 1113 324 1154 q 157 1071 221 1071 q 56 1099 93 1071 q 19 1175 19 1126 q 74 1285 19 1246 q 190 1325 129 1325 q 287 1297 250 1325 q 324 1211 324 1268 z "},"Ð":{"ha":1078,"x_min":-31,"x_max":1078,"o":"m 83 226 q 90 325 83 260 q -31 414 -31 325 q 26 546 -31 481 q 125 532 61 532 l 167 758 l 93 907 q 393 1007 269 1007 q 485 965 454 1007 q 697 1006 600 1006 q 978 888 878 1006 q 1078 596 1078 771 q 908 172 1078 365 q 692 22 826 79 q 406 -35 558 -35 q 168 33 253 -35 q 83 226 83 100 m 378 174 q 443 168 407 168 q 679 277 594 168 q 764 546 764 386 q 706 751 764 675 q 538 828 647 828 q 482 822 521 828 q 473 767 479 807 q 460 688 467 726 q 449 611 454 649 q 546 629 503 629 q 658 540 658 629 q 601 408 658 474 q 518 422 567 422 q 415 413 469 422 q 378 174 389 256 z "},"Ñ":{"ha":1208,"x_min":76,"x_max":1181,"o":"m 803 218 l 836 240 q 746 621 746 414 q 826 894 746 782 q 1051 1007 906 1007 q 1181 981 1128 1007 q 1131 710 1167 903 q 1053 233 1053 294 q 1097 36 1053 101 q 985 -19 1036 -4 q 852 -35 933 -35 q 705 0 771 -35 q 597 92 639 35 q 525 235 554 150 q 463 613 474 383 l 440 613 q 376 208 376 324 q 418 26 376 93 q 244 -36 335 -36 q 115 16 154 -36 q 76 172 76 68 q 164 758 76 275 l 90 907 q 368 1007 246 1007 q 553 965 490 1007 q 640 840 615 922 q 677 667 665 758 q 719 449 689 576 q 803 218 749 321 m 982 1118 q 867 1146 926 1146 q 701 1105 807 1146 q 542 1064 594 1064 q 453 1151 453 1064 q 490 1297 453 1215 q 606 1269 546 1269 q 772 1310 665 1269 q 931 1351 878 1351 q 1019 1264 1019 1351 q 982 1118 1019 1200 z "},"Ò":{"ha":1075,"x_min":35,"x_max":1054,"o":"m 35 425 q 182 848 35 689 q 585 1007 329 1007 q 702 974 667 1007 q 738 874 738 942 q 735 836 738 864 q 849 878 786 878 q 994 802 933 878 q 1054 583 1054 726 q 1008 321 1054 440 q 887 125 963 201 q 715 7 811 49 q 515 -35 618 -35 q 164 92 293 -35 q 35 425 35 219 m 728 360 q 639 593 639 468 q 694 794 639 718 q 644 799 669 799 q 474 739 546 799 q 338 431 338 628 q 388 243 338 318 q 526 168 438 168 q 651 222 594 168 q 728 360 707 275 m 807 1046 q 638 1092 749 1046 q 464 1139 528 1139 q 432 1136 451 1139 q 418 1238 418 1183 q 496 1369 418 1369 q 613 1323 547 1369 q 752 1221 679 1276 q 885 1151 825 1165 q 859 1072 881 1097 q 807 1046 838 1046 z "},"Ó":{"ha":1075,"x_min":35,"x_max":1054,"o":"m 35 425 q 182 848 35 689 q 585 1007 329 1007 q 702 974 667 1007 q 738 874 738 942 q 735 836 738 864 q 849 878 786 878 q 994 802 933 878 q 1054 583 1054 726 q 1008 321 1054 440 q 887 125 963 201 q 715 7 811 49 q 515 -35 618 -35 q 164 92 293 -35 q 35 425 35 219 m 728 360 q 639 593 639 468 q 694 794 639 718 q 644 799 669 799 q 474 739 546 799 q 338 431 338 628 q 388 243 338 318 q 526 168 438 168 q 651 222 594 168 q 728 360 707 275 m 508 1046 q 456 1072 478 1046 q 431 1151 435 1097 q 563 1221 490 1165 q 702 1323 636 1276 q 819 1369 768 1369 q 897 1238 897 1369 q 883 1136 897 1183 q 851 1139 864 1139 q 677 1092 788 1139 q 508 1046 567 1046 z "},"Ô":{"ha":1075,"x_min":35,"x_max":1054,"o":"m 35 425 q 182 848 35 689 q 585 1007 329 1007 q 702 974 667 1007 q 738 874 738 942 q 735 836 738 864 q 849 878 786 878 q 994 802 933 878 q 1054 583 1054 726 q 1008 321 1054 440 q 887 125 963 201 q 715 7 811 49 q 515 -35 618 -35 q 164 92 293 -35 q 35 425 35 219 m 728 360 q 639 593 639 468 q 694 794 639 718 q 644 799 669 799 q 474 739 546 799 q 338 431 338 628 q 388 243 338 318 q 526 168 438 168 q 651 222 594 168 q 728 360 707 275 m 892 1314 l 878 1143 q 897 1065 878 1100 q 788 1054 854 1054 q 694 1083 722 1054 q 665 1168 665 1113 q 675 1279 665 1189 l 639 1279 q 556 1071 556 1176 q 400 1054 479 1054 q 321 1081 321 1054 q 493 1331 321 1139 q 588 1355 517 1344 q 729 1365 658 1365 q 892 1314 892 1365 z "},"Õ":{"ha":1075,"x_min":35,"x_max":1054,"o":"m 35 425 q 182 848 35 689 q 585 1007 329 1007 q 702 974 667 1007 q 738 874 738 942 q 735 836 738 864 q 849 878 786 878 q 994 802 933 878 q 1054 583 1054 726 q 1008 321 1054 440 q 887 125 963 201 q 715 7 811 49 q 515 -35 618 -35 q 164 92 293 -35 q 35 425 35 219 m 728 360 q 639 593 639 468 q 694 794 639 718 q 644 799 669 799 q 474 739 546 799 q 338 431 338 628 q 388 243 338 318 q 526 168 438 168 q 651 222 594 168 q 728 360 707 275 m 907 1118 q 792 1146 851 1146 q 626 1105 732 1146 q 467 1064 519 1064 q 378 1151 378 1064 q 415 1297 378 1215 q 531 1269 471 1269 q 697 1310 590 1269 q 856 1351 803 1351 q 944 1264 944 1351 q 907 1118 944 1200 z "},"Ö":{"ha":1075,"x_min":35,"x_max":1054,"o":"m 35 425 q 182 848 35 689 q 585 1007 329 1007 q 702 974 667 1007 q 738 874 738 942 q 735 836 738 864 q 849 878 786 878 q 994 802 933 878 q 1054 583 1054 726 q 1008 321 1054 440 q 887 125 963 201 q 715 7 811 49 q 515 -35 618 -35 q 164 92 293 -35 q 35 425 35 219 m 728 360 q 639 593 639 468 q 694 794 639 718 q 644 799 669 799 q 474 739 546 799 q 338 431 338 628 q 388 243 338 318 q 526 168 438 168 q 651 222 594 168 q 728 360 707 275 m 1026 1211 q 1026 1183 1026 1211 q 975 1113 1026 1154 q 860 1071 924 1071 q 759 1099 796 1071 q 722 1175 722 1126 q 777 1285 722 1246 q 892 1325 832 1325 q 990 1297 953 1325 q 1026 1211 1026 1268 m 608 1211 q 608 1183 608 1211 q 557 1113 608 1154 q 442 1071 506 1071 q 341 1099 378 1071 q 304 1175 304 1126 q 359 1285 304 1246 q 474 1325 414 1325 q 572 1297 535 1325 q 608 1211 608 1268 z "},"×":{"ha":1018,"x_min":142,"x_max":901,"o":"m 263 147 q 183 206 219 147 q 142 326 147 264 q 374 506 231 347 q 260 640 300 583 q 221 749 221 697 q 266 841 221 800 q 386 893 311 882 q 511 664 397 786 q 659 806 593 756 q 777 857 725 857 q 861 821 829 857 q 901 724 893 785 q 653 528 804 707 q 780 395 735 453 q 825 288 825 338 q 761 198 825 239 q 628 149 697 157 q 517 351 615 233 q 263 147 354 147 z "},"Ø":{"ha":1075,"x_min":35,"x_max":1054,"o":"m 529 -56 q 360 -221 483 -221 q 222 -171 285 -221 q 314 0 271 -124 q 108 160 181 49 q 35 425 35 272 q 178 842 35 685 q 571 1004 321 1000 l 592 1089 q 713 1188 615 1188 q 890 1115 811 1188 q 776 863 832 1031 q 849 878 814 878 q 994 802 933 878 q 1054 585 1054 726 q 1010 327 1054 444 q 894 133 967 210 q 535 -33 743 -25 l 529 -56 m 517 775 q 378 623 429 731 q 326 399 326 515 q 379 221 326 283 q 517 775 447 467 m 596 189 q 738 340 686 231 q 790 564 790 449 q 742 742 790 679 q 657 426 700 597 q 596 189 614 256 z "},"Ù":{"ha":1149,"x_min":90,"x_max":1121,"o":"m 1035 26 q 871 -36 951 -36 q 743 6 790 -36 q 696 131 696 47 q 697 167 696 154 l 683 171 q 314 -35 546 -35 q 90 201 90 -35 q 113 412 90 281 q 151 634 135 543 q 172 758 167 725 l 99 907 q 251 982 186 957 q 381 1007 315 1007 q 469 973 446 1007 q 492 892 492 939 q 445 589 492 844 q 399 290 399 333 q 474 181 399 181 q 600 251 529 181 q 715 446 671 322 q 686 621 686 531 q 766 894 686 782 q 992 1007 846 1007 q 1121 981 1072 1007 q 1072 708 1108 906 q 993 228 993 290 q 1035 26 993 93 m 853 1046 q 684 1092 794 1046 q 510 1139 574 1139 q 478 1136 497 1139 q 464 1238 464 1183 q 542 1369 464 1369 q 659 1323 593 1369 q 798 1221 725 1276 q 931 1151 871 1165 q 905 1072 926 1097 q 853 1046 883 1046 z "},"Ú":{"ha":1149,"x_min":90,"x_max":1121,"o":"m 1035 26 q 871 -36 951 -36 q 743 6 790 -36 q 696 131 696 47 q 697 167 696 154 l 683 171 q 314 -35 546 -35 q 90 201 90 -35 q 113 412 90 281 q 151 634 135 543 q 172 758 167 725 l 99 907 q 251 982 186 957 q 381 1007 315 1007 q 469 973 446 1007 q 492 892 492 939 q 445 589 492 844 q 399 290 399 333 q 474 181 399 181 q 600 251 529 181 q 715 446 671 322 q 686 621 686 531 q 766 894 686 782 q 992 1007 846 1007 q 1121 981 1072 1007 q 1072 708 1108 906 q 993 228 993 290 q 1035 26 993 93 m 576 1046 q 524 1072 546 1046 q 499 1151 503 1097 q 631 1221 558 1165 q 770 1323 704 1276 q 888 1369 836 1369 q 965 1238 965 1369 q 951 1136 965 1183 q 919 1139 932 1139 q 745 1092 856 1139 q 576 1046 635 1046 z "},"Û":{"ha":1149,"x_min":90,"x_max":1121,"o":"m 1035 26 q 871 -36 951 -36 q 743 6 790 -36 q 696 131 696 47 q 697 167 696 154 l 683 171 q 314 -35 546 -35 q 90 201 90 -35 q 113 412 90 281 q 151 634 135 543 q 172 758 167 725 l 99 907 q 251 982 186 957 q 381 1007 315 1007 q 469 973 446 1007 q 492 892 492 939 q 445 589 492 844 q 399 290 399 333 q 474 181 399 181 q 600 251 529 181 q 715 446 671 322 q 686 621 686 531 q 766 894 686 782 q 992 1007 846 1007 q 1121 981 1072 1007 q 1072 708 1108 906 q 993 228 993 290 q 1035 26 993 93 m 963 1314 l 949 1143 q 968 1065 949 1100 q 859 1054 925 1054 q 765 1083 793 1054 q 736 1168 736 1113 q 746 1279 736 1189 l 710 1279 q 626 1071 626 1176 q 471 1054 550 1054 q 392 1081 392 1054 q 564 1331 392 1139 q 658 1355 588 1344 q 800 1365 729 1365 q 963 1314 963 1365 z "},"Ü":{"ha":1149,"x_min":90,"x_max":1121,"o":"m 1035 26 q 871 -36 951 -36 q 743 6 790 -36 q 696 131 696 47 q 697 167 696 154 l 683 171 q 314 -35 546 -35 q 90 201 90 -35 q 113 412 90 281 q 151 634 135 543 q 172 758 167 725 l 99 907 q 251 982 186 957 q 381 1007 315 1007 q 469 973 446 1007 q 492 892 492 939 q 445 589 492 844 q 399 290 399 333 q 474 181 399 181 q 600 251 529 181 q 715 446 671 322 q 686 621 686 531 q 766 894 686 782 q 992 1007 846 1007 q 1121 981 1072 1007 q 1072 708 1108 906 q 993 228 993 290 q 1035 26 993 93 m 1082 1211 q 1082 1183 1082 1211 q 1031 1113 1082 1154 q 915 1071 979 1071 q 815 1099 851 1071 q 778 1175 778 1126 q 833 1285 778 1246 q 948 1325 888 1325 q 1045 1297 1008 1325 q 1082 1211 1082 1268 m 664 1211 q 664 1183 664 1211 q 613 1113 664 1154 q 497 1071 561 1071 q 397 1099 433 1071 q 360 1175 360 1126 q 415 1285 360 1246 q 530 1325 469 1325 q 627 1297 590 1325 q 664 1211 664 1268 z "},"Ý":{"ha":933,"x_min":-14,"x_max":947,"o":"m 169 250 q 164 367 168 278 q 156 502 160 456 q 141 629 153 549 q 111 758 129 710 q -14 942 67 886 q 162 1007 94 1007 q 274 985 229 1007 q 347 931 318 963 q 397 844 375 900 q 431 743 419 789 q 449 625 442 697 q 459 508 457 553 q 463 391 461 464 q 467 290 465 318 l 486 290 q 585 586 540 419 q 631 851 631 753 q 610 942 631 900 q 794 1007 714 1007 q 947 846 947 1007 q 885 571 947 764 q 738 197 822 378 q 512 -142 628 -37 q 214 -246 396 -246 q 68 -214 133 -246 q -11 -87 -11 -176 q 57 96 -11 1 q 139 27 88 51 q 252 3 190 3 q 369 37 314 3 q 447 135 424 71 q 313 117 374 117 q 169 250 181 117 m 397 1046 q 345 1072 367 1046 q 319 1151 324 1097 q 452 1221 379 1165 q 591 1323 525 1276 q 708 1369 657 1369 q 786 1238 786 1369 q 772 1136 786 1183 q 740 1139 753 1139 q 566 1092 676 1139 q 397 1046 456 1046 z "},"Þ":{"ha":971,"x_min":83,"x_max":971,"o":"m 425 326 q 598 392 536 326 q 660 533 660 458 q 624 653 660 608 q 521 697 588 697 q 457 688 493 697 q 393 328 429 499 q 425 326 403 326 m 251 -36 q 206 -36 251 -36 q 122 16 161 -36 q 83 172 83 68 q 171 758 83 275 l 97 907 q 383 1008 254 1008 q 490 878 490 1008 q 486 833 490 861 q 689 874 589 874 q 895 783 819 874 q 971 563 971 692 q 858 285 971 407 q 713 189 804 225 q 531 153 621 153 q 385 167 442 153 q 425 26 393 74 q 251 -36 342 -36 z "},"ß":{"ha":1007,"x_min":0,"x_max":993,"o":"m 641 469 q 625 469 641 469 q 585 494 608 469 q 561 553 561 518 q 585 613 561 589 q 635 638 608 638 q 681 626 663 638 q 725 747 725 688 q 635 868 725 868 q 528 801 567 868 q 468 614 490 735 q 451 531 467 607 q 422 380 436 456 q 392 211 408 304 q 357 -91 357 4 q 400 -224 357 -186 q 232 -292 318 -292 q 108 -235 146 -292 q 69 -98 69 -178 q 156 446 69 -18 q 6 417 78 436 q 0 469 0 443 q 50 586 0 556 q 188 621 100 617 l 213 757 q 626 1076 271 1076 q 847 995 763 1076 q 931 806 931 914 q 804 585 931 668 q 993 279 993 504 q 895 53 993 156 q 657 -49 797 -49 q 505 3 557 -49 q 453 139 453 56 q 521 279 453 222 q 621 257 556 257 q 719 290 686 257 q 751 379 751 322 q 699 492 751 436 q 641 469 674 469 z "},"à":{"ha":1022,"x_min":56,"x_max":960,"o":"m 593 171 l 579 178 q 472 22 542 78 q 315 -35 401 -35 q 126 54 197 -35 q 56 292 56 143 q 210 678 56 522 q 596 833 365 833 q 706 822 656 833 q 715 754 714 783 q 858 799 785 799 q 960 689 960 799 q 916 454 960 650 q 872 164 872 258 q 915 33 872 69 q 753 -35 838 -35 q 631 15 669 -35 q 593 171 593 65 m 317 360 q 345 255 317 292 q 426 218 374 218 q 531 257 479 218 q 617 364 582 296 q 671 696 629 504 q 424 594 531 696 q 317 360 317 493 m 793 907 q 624 953 735 907 q 450 1000 514 1000 q 418 997 438 1000 q 404 1099 404 1044 q 482 1231 404 1231 q 599 1184 533 1231 q 738 1082 665 1138 q 871 1013 811 1026 q 845 933 867 958 q 793 907 824 907 z "},"á":{"ha":1022,"x_min":56,"x_max":960,"o":"m 593 171 l 579 178 q 472 22 542 78 q 315 -35 401 -35 q 126 54 197 -35 q 56 292 56 143 q 210 678 56 522 q 596 833 365 833 q 706 822 656 833 q 715 754 714 783 q 858 799 785 799 q 960 689 960 799 q 916 454 960 650 q 872 164 872 258 q 915 33 872 69 q 753 -35 838 -35 q 631 15 669 -35 q 593 171 593 65 m 317 360 q 345 255 317 292 q 426 218 374 218 q 531 257 479 218 q 617 364 582 296 q 671 696 629 504 q 424 594 531 696 q 317 360 317 493 m 492 907 q 440 933 461 907 q 414 1013 418 958 q 547 1082 474 1026 q 685 1184 619 1138 q 803 1231 751 1231 q 881 1099 881 1231 q 867 997 881 1044 q 835 1000 847 1000 q 660 953 771 1000 q 492 907 550 907 z "},"â":{"ha":1022,"x_min":56,"x_max":960,"o":"m 593 171 l 579 178 q 472 22 542 78 q 315 -35 401 -35 q 126 54 197 -35 q 56 292 56 143 q 210 678 56 522 q 596 833 365 833 q 706 822 656 833 q 715 754 714 783 q 858 799 785 799 q 960 689 960 799 q 916 454 960 650 q 872 164 872 258 q 915 33 872 69 q 753 -35 838 -35 q 631 15 669 -35 q 593 171 593 65 m 317 360 q 345 255 317 292 q 426 218 374 218 q 531 257 479 218 q 617 364 582 296 q 671 696 629 504 q 424 594 531 696 q 317 360 317 493 m 865 1154 l 851 983 q 871 906 851 939 q 762 894 828 894 q 667 924 696 894 q 639 1008 639 953 q 649 1119 639 1029 l 613 1119 q 529 911 529 1017 q 374 894 453 894 q 294 921 294 894 q 467 1171 294 979 q 561 1195 490 1185 q 703 1206 632 1206 q 865 1154 865 1206 z "},"ã":{"ha":1022,"x_min":56,"x_max":960,"o":"m 593 171 l 579 178 q 472 22 542 78 q 315 -35 401 -35 q 126 54 197 -35 q 56 292 56 143 q 210 678 56 522 q 596 833 365 833 q 706 822 656 833 q 715 754 714 783 q 858 799 785 799 q 960 689 960 799 q 916 454 960 650 q 872 164 872 258 q 915 33 872 69 q 753 -35 838 -35 q 631 15 669 -35 q 593 171 593 65 m 317 360 q 345 255 317 292 q 426 218 374 218 q 531 257 479 218 q 617 364 582 296 q 671 696 629 504 q 424 594 531 696 q 317 360 317 493 m 894 979 q 779 1007 839 1007 q 613 966 719 1007 q 454 925 507 925 q 365 1013 365 925 q 403 1158 365 1076 q 518 1131 458 1131 q 684 1172 578 1131 q 843 1213 790 1213 q 932 1125 932 1213 q 894 979 932 1061 z "},"ä":{"ha":1022,"x_min":56,"x_max":960,"o":"m 593 171 l 579 178 q 472 22 542 78 q 315 -35 401 -35 q 126 54 197 -35 q 56 292 56 143 q 210 678 56 522 q 596 833 365 833 q 706 822 656 833 q 715 754 714 783 q 858 799 785 799 q 960 689 960 799 q 916 454 960 650 q 872 164 872 258 q 915 33 872 69 q 753 -35 838 -35 q 631 15 669 -35 q 593 171 593 65 m 317 360 q 345 255 317 292 q 426 218 374 218 q 531 257 479 218 q 617 364 582 296 q 671 696 629 504 q 424 594 531 696 q 317 360 317 493 m 950 1065 q 950 1037 950 1065 q 899 967 950 1008 q 783 925 847 925 q 683 953 719 925 q 646 1029 646 981 q 701 1140 646 1100 q 816 1179 756 1179 q 913 1151 876 1179 q 950 1065 950 1122 m 532 1065 q 532 1037 532 1065 q 481 967 532 1008 q 365 925 429 925 q 265 953 301 925 q 228 1029 228 981 q 283 1140 228 1100 q 398 1179 338 1179 q 495 1151 458 1179 q 532 1065 532 1122 z "},"å":{"ha":1094,"x_min":97,"x_max":1001,"o":"m 604 1057 q 623 994 604 1019 q 677 968 642 968 q 742 1010 713 968 q 772 1104 772 1051 q 689 1183 772 1183 q 653 1181 681 1183 q 604 1057 604 1126 m 635 171 l 621 178 q 513 22 583 78 q 357 -35 443 -35 q 168 54 239 -35 q 97 292 97 143 q 252 678 97 522 q 638 833 407 833 q 747 822 697 833 q 757 754 756 783 q 900 799 826 799 q 1001 689 1001 799 q 958 454 1001 650 q 914 164 914 258 q 957 33 914 69 q 795 -35 879 -35 q 673 15 711 -35 q 635 171 635 65 m 358 360 q 387 255 358 292 q 468 218 415 218 q 572 257 521 218 q 658 364 624 296 q 713 696 671 504 q 465 594 572 696 q 358 360 358 493 m 933 1103 q 862 940 933 1001 q 683 878 790 878 q 521 925 576 878 q 465 1051 465 972 q 537 1215 465 1153 q 715 1276 608 1276 q 878 1229 822 1276 q 933 1103 933 1182 z "},"æ":{"ha":1374,"x_min":56,"x_max":1325,"o":"m 718 722 q 1063 833 865 833 q 1258 776 1192 833 q 1325 624 1325 718 q 1199 409 1325 494 q 811 322 1074 324 q 851 183 815 233 q 942 132 888 132 q 1035 168 996 132 q 1075 286 1075 204 q 1278 190 1278 286 q 1178 37 1278 108 q 921 -35 1078 -35 q 586 157 664 -35 l 571 157 q 464 16 531 67 q 315 -35 397 -35 q 126 54 197 -35 q 56 292 56 143 q 210 678 56 522 q 596 833 365 833 q 706 822 656 833 q 718 722 714 778 m 317 360 q 340 255 317 292 q 409 218 364 218 q 497 257 454 218 q 569 364 540 296 q 624 667 585 489 q 407 579 497 667 q 317 360 317 492 m 1039 671 q 909 600 968 671 q 824 433 850 529 q 1033 497 963 444 q 1103 607 1103 550 q 1085 653 1103 635 q 1039 671 1068 671 z "},"ç":{"ha":886,"x_min":54,"x_max":858,"o":"m 63 331 q 215 693 63 553 q 600 833 368 833 q 789 788 719 833 q 858 675 858 743 q 812 571 858 607 q 710 535 765 535 q 610 564 656 535 q 540 649 565 593 q 402 521 453 613 q 351 338 351 429 q 388 189 351 246 q 482 132 424 132 q 577 171 540 132 q 614 286 614 210 q 817 190 817 286 q 730 49 817 117 q 507 -32 643 -19 q 554 -154 554 -83 q 475 -324 554 -250 q 276 -399 396 -399 q 105 -353 156 -399 q 54 -244 54 -308 q 107 -132 54 -181 q 240 -83 160 -83 q 201 -181 201 -118 q 222 -240 201 -219 q 278 -261 242 -261 q 349 -226 314 -261 q 383 -131 383 -192 q 328 -19 383 -69 q 133 106 203 13 q 63 331 63 199 z "},"è":{"ha":913,"x_min":63,"x_max":864,"o":"m 460 -35 q 166 64 269 -35 q 63 331 63 163 q 216 694 63 554 q 601 833 369 833 q 797 776 731 833 q 864 624 864 718 q 738 409 864 494 q 350 322 613 324 q 390 183 354 233 q 481 132 426 132 q 574 168 535 132 q 614 286 614 204 q 817 190 817 286 q 717 37 817 108 q 460 -35 617 -35 m 578 671 q 448 600 507 671 q 363 433 389 529 q 572 497 501 444 q 642 607 642 549 q 624 653 642 635 q 578 671 607 671 m 719 907 q 551 953 661 907 q 376 1000 440 1000 q 344 997 364 1000 q 331 1099 331 1044 q 408 1231 331 1231 q 526 1184 460 1231 q 665 1082 592 1138 q 797 1013 738 1026 q 772 933 793 958 q 719 907 750 907 z "},"é":{"ha":913,"x_min":63,"x_max":864,"o":"m 460 -35 q 166 64 269 -35 q 63 331 63 163 q 216 694 63 554 q 601 833 369 833 q 797 776 731 833 q 864 624 864 718 q 738 409 864 494 q 350 322 613 324 q 390 183 354 233 q 481 132 426 132 q 574 168 535 132 q 614 286 614 204 q 817 190 817 286 q 717 37 817 108 q 460 -35 617 -35 m 578 671 q 448 600 507 671 q 363 433 389 529 q 572 497 501 444 q 642 607 642 549 q 624 653 642 635 q 578 671 607 671 m 394 907 q 342 933 364 907 q 317 1013 321 958 q 449 1082 376 1026 q 588 1184 522 1138 q 706 1231 654 1231 q 783 1099 783 1231 q 769 997 783 1044 q 738 1000 750 1000 q 563 953 674 1000 q 394 907 453 907 z "},"ê":{"ha":913,"x_min":63,"x_max":864,"o":"m 460 -35 q 166 64 269 -35 q 63 331 63 163 q 216 694 63 554 q 601 833 369 833 q 797 776 731 833 q 864 624 864 718 q 738 409 864 494 q 350 322 613 324 q 390 183 354 233 q 481 132 426 132 q 574 168 535 132 q 614 286 614 204 q 817 190 817 286 q 717 37 817 108 q 460 -35 617 -35 m 578 671 q 448 600 507 671 q 363 433 389 529 q 572 497 501 444 q 642 607 642 549 q 624 653 642 635 q 578 671 607 671 m 829 1154 l 815 983 q 835 906 815 939 q 726 894 792 894 q 631 924 660 894 q 603 1008 603 953 q 613 1119 603 1029 l 576 1119 q 493 911 493 1017 q 338 894 417 894 q 258 921 258 894 q 431 1171 258 979 q 525 1195 454 1185 q 667 1206 596 1206 q 829 1154 829 1206 z "},"ë":{"ha":913,"x_min":63,"x_max":939,"o":"m 460 -35 q 166 64 269 -35 q 63 331 63 163 q 216 694 63 554 q 601 833 369 833 q 797 776 731 833 q 864 624 864 718 q 738 409 864 494 q 350 322 613 324 q 390 183 354 233 q 481 132 426 132 q 574 168 535 132 q 614 286 614 204 q 817 190 817 286 q 717 37 817 108 q 460 -35 617 -35 m 578 671 q 448 600 507 671 q 363 433 389 529 q 572 497 501 444 q 642 607 642 549 q 624 653 642 635 q 578 671 607 671 m 939 1065 q 939 1037 939 1065 q 888 967 939 1008 q 772 925 836 925 q 672 953 708 925 q 635 1029 635 981 q 690 1140 635 1100 q 805 1179 744 1179 q 902 1151 865 1179 q 939 1065 939 1122 m 521 1065 q 521 1037 521 1065 q 469 967 521 1008 q 354 925 418 925 q 253 953 290 925 q 217 1029 217 981 q 272 1140 217 1100 q 387 1179 326 1179 q 484 1151 447 1179 q 521 1065 521 1122 z "},"ì":{"ha":539,"x_min":90,"x_max":561,"o":"m 255 -35 q 211 -35 255 -35 q 129 8 168 -35 q 90 140 90 51 q 179 613 90 228 l 101 729 q 375 833 275 833 q 456 809 432 833 q 479 731 479 785 q 428 486 479 710 q 376 167 376 263 q 419 33 376 71 q 255 -35 342 -35 m 483 907 q 315 953 425 907 q 140 1000 204 1000 q 108 997 128 1000 q 94 1099 94 1044 q 172 1231 94 1231 q 290 1184 224 1231 q 428 1082 356 1138 q 561 1013 501 1026 q 535 933 557 958 q 483 907 514 907 z "},"í":{"ha":539,"x_min":90,"x_max":565,"o":"m 255 -35 q 211 -35 255 -35 q 129 8 168 -35 q 90 140 90 51 q 179 613 90 228 l 101 729 q 375 833 275 833 q 456 809 432 833 q 479 731 479 785 q 428 486 479 710 q 376 167 376 263 q 419 33 376 71 q 255 -35 342 -35 m 176 907 q 124 933 146 907 q 99 1013 103 958 q 231 1082 158 1026 q 370 1184 304 1138 q 488 1231 436 1231 q 565 1099 565 1231 q 551 997 565 1044 q 519 1000 532 1000 q 345 953 456 1000 q 176 907 235 907 z "},"î":{"ha":539,"x_min":25,"x_max":601,"o":"m 255 -35 q 211 -35 255 -35 q 129 8 168 -35 q 90 140 90 51 q 179 613 90 228 l 101 729 q 375 833 275 833 q 456 809 432 833 q 479 731 479 785 q 428 486 479 710 q 376 167 376 263 q 419 33 376 71 q 255 -35 342 -35 m 596 1154 l 582 983 q 601 906 582 939 q 492 894 558 894 q 398 924 426 894 q 369 1008 369 953 q 379 1119 369 1029 l 343 1119 q 260 911 260 1017 q 104 894 183 894 q 25 921 25 894 q 197 1171 25 979 q 292 1195 221 1185 q 433 1206 363 1206 q 596 1154 596 1206 z "},"ï":{"ha":539,"x_min":1,"x_max":724,"o":"m 255 -35 q 211 -35 255 -35 q 129 8 168 -35 q 90 140 90 51 q 179 613 90 228 l 101 729 q 375 833 275 833 q 456 809 432 833 q 479 731 479 785 q 428 486 479 710 q 376 167 376 263 q 419 33 376 71 q 255 -35 342 -35 m 724 1065 q 724 1037 724 1065 q 672 967 724 1008 q 557 925 621 925 q 456 953 493 925 q 419 1029 419 981 q 474 1140 419 1100 q 590 1179 529 1179 q 687 1151 650 1179 q 724 1065 724 1122 m 306 1065 q 306 1037 306 1065 q 254 967 306 1008 q 139 925 203 925 q 38 953 75 925 q 1 1029 1 981 q 56 1140 1 1100 q 172 1179 111 1179 q 269 1151 232 1179 q 306 1065 306 1122 z "},"ð":{"ha":936,"x_min":42,"x_max":950,"o":"m 392 -35 q 307 -35 392 -35 q 132 66 222 -35 q 42 313 42 167 q 90 519 42 421 q 242 683 139 617 q 481 750 344 750 q 571 740 519 750 q 483 863 540 810 q 324 976 425 915 q 426 1041 364 1014 q 546 1068 488 1068 q 722 953 651 1068 q 856 1010 808 1010 q 950 919 950 1010 q 921 817 950 874 q 871 819 903 819 q 788 801 839 819 q 839 432 839 632 q 799 229 839 321 q 694 81 760 138 q 392 -35 563 -35 m 313 306 q 344 192 313 231 q 425 154 376 154 q 557 227 497 154 q 617 422 617 300 q 585 532 617 494 q 507 569 554 569 q 374 497 435 569 q 313 306 313 424 z "},"ñ":{"ha":1110,"x_min":99,"x_max":1013,"o":"m 258 -35 q 217 -35 258 -35 q 138 8 176 -35 q 99 122 99 51 q 127 353 99 193 q 186 644 156 513 l 114 756 q 368 833 251 833 q 485 728 485 833 q 453 586 485 658 l 467 579 q 844 833 615 833 q 1013 665 1013 833 q 972 421 1013 593 q 931 161 931 249 q 960 33 931 74 q 804 -35 886 -35 q 644 138 644 -35 q 686 354 644 201 q 728 553 728 507 q 681 615 728 615 q 592 581 642 615 q 495 490 542 547 q 417 344 449 432 q 385 165 385 256 q 414 33 385 74 q 258 -35 340 -35 m 871 979 q 756 1007 815 1007 q 590 966 696 1007 q 431 925 483 925 q 342 1013 342 925 q 379 1158 342 1076 q 494 1131 435 1131 q 660 1172 554 1131 q 819 1213 767 1213 q 908 1125 908 1213 q 871 979 908 1061 z "},"ò":{"ha":993,"x_min":63,"x_max":938,"o":"m 749 907 q 580 953 690 907 q 406 1000 469 1000 q 374 997 393 1000 q 360 1099 360 1044 q 438 1231 360 1231 q 555 1184 489 1231 q 694 1082 621 1138 q 826 1013 767 1026 q 801 933 822 958 q 749 907 779 907 m 747 728 q 881 665 825 728 q 938 484 938 603 q 896 265 938 365 q 786 100 854 164 q 632 1 718 36 q 456 -35 546 -35 q 168 65 274 -35 q 63 331 63 165 q 206 694 63 554 q 572 833 350 833 q 672 822 622 833 q 689 718 688 776 q 747 728 718 728 m 576 535 q 595 622 576 574 q 656 700 614 671 q 403 551 472 661 q 343 357 343 457 q 384 197 343 257 q 489 136 425 136 q 689 321 631 136 q 576 535 576 390 z "},"ó":{"ha":993,"x_min":63,"x_max":938,"o":"m 439 907 q 387 933 408 907 q 361 1013 365 958 q 494 1082 421 1026 q 633 1184 567 1138 q 750 1231 699 1231 q 828 1099 828 1231 q 814 997 828 1044 q 782 1000 794 1000 q 608 953 718 1000 q 439 907 497 907 m 747 728 q 881 665 825 728 q 938 484 938 603 q 896 265 938 365 q 786 100 854 164 q 632 1 718 36 q 456 -35 546 -35 q 168 65 274 -35 q 63 331 63 165 q 206 694 63 554 q 572 833 350 833 q 672 822 622 833 q 689 718 688 776 q 747 728 718 728 m 576 535 q 595 622 576 574 q 656 700 614 671 q 403 551 472 661 q 343 357 343 457 q 384 197 343 257 q 489 136 425 136 q 689 321 631 136 q 576 535 576 390 z "},"ô":{"ha":993,"x_min":63,"x_max":938,"o":"m 858 1154 l 844 983 q 864 906 844 939 q 755 894 821 894 q 660 924 689 894 q 632 1008 632 953 q 642 1119 632 1029 l 606 1119 q 522 911 522 1017 q 367 894 446 894 q 288 921 288 894 q 460 1171 288 979 q 554 1195 483 1185 q 696 1206 625 1206 q 858 1154 858 1206 m 747 728 q 881 665 825 728 q 938 484 938 603 q 896 265 938 365 q 786 100 854 164 q 632 1 718 36 q 456 -35 546 -35 q 168 65 274 -35 q 63 331 63 165 q 206 694 63 554 q 572 833 350 833 q 672 822 622 833 q 689 718 688 776 q 747 728 718 728 m 576 535 q 595 622 576 574 q 656 700 614 671 q 403 551 472 661 q 343 357 343 457 q 384 197 343 257 q 489 136 425 136 q 689 321 631 136 q 576 535 576 390 z "},"õ":{"ha":993,"x_min":63,"x_max":938,"o":"m 854 979 q 739 1007 799 1007 q 573 966 679 1007 q 414 925 467 925 q 325 1013 325 925 q 363 1158 325 1076 q 478 1131 418 1131 q 644 1172 538 1131 q 803 1213 750 1213 q 892 1125 892 1213 q 854 979 892 1061 m 747 728 q 881 665 825 728 q 938 484 938 603 q 896 265 938 365 q 786 100 854 164 q 632 1 718 36 q 456 -35 546 -35 q 168 65 274 -35 q 63 331 63 165 q 206 694 63 554 q 572 833 350 833 q 672 822 622 833 q 689 718 688 776 q 747 728 718 728 m 576 535 q 595 622 576 574 q 656 700 614 671 q 403 551 472 661 q 343 357 343 457 q 384 197 343 257 q 489 136 425 136 q 689 321 631 136 q 576 535 576 390 z "},"ö":{"ha":993,"x_min":63,"x_max":954,"o":"m 954 1065 q 954 1037 954 1065 q 903 967 954 1008 q 788 925 851 925 q 687 953 724 925 q 650 1029 650 981 q 705 1140 650 1100 q 820 1179 760 1179 q 917 1151 881 1179 q 954 1065 954 1122 m 536 1065 q 536 1037 536 1065 q 485 967 536 1008 q 369 925 433 925 q 269 953 306 925 q 232 1029 232 981 q 287 1140 232 1100 q 402 1179 342 1179 q 499 1151 463 1179 q 536 1065 536 1122 m 747 728 q 881 665 825 728 q 938 484 938 603 q 896 265 938 365 q 786 100 854 164 q 632 1 718 36 q 456 -35 546 -35 q 168 65 274 -35 q 63 331 63 165 q 206 694 63 554 q 572 833 350 833 q 672 822 622 833 q 689 718 688 776 q 747 728 718 728 m 576 535 q 595 622 576 574 q 656 700 614 671 q 403 551 472 661 q 343 357 343 457 q 384 197 343 257 q 489 136 425 136 q 689 321 631 136 q 576 535 576 390 z "},"÷":{"ha":1018,"x_min":139,"x_max":879,"o":"m 456 15 q 428 15 456 15 q 367 49 401 15 q 333 136 333 83 q 374 231 333 189 q 470 274 415 274 q 558 240 525 274 q 592 153 592 206 q 551 58 592 100 q 456 15 510 15 m 521 704 q 494 704 521 704 q 433 738 467 704 q 399 825 399 772 q 440 920 399 878 q 535 963 481 963 q 623 928 589 963 q 657 842 657 894 q 616 747 657 789 q 521 704 575 704 m 360 611 l 769 619 q 879 514 879 619 q 854 404 879 453 q 706 426 800 426 q 444 410 613 426 q 193 393 276 393 q 139 482 139 393 q 182 635 139 571 q 360 611 257 611 z "},"ø":{"ha":993,"x_min":63,"x_max":938,"o":"m 499 -32 l 497 -40 q 358 -176 460 -176 q 246 -136 299 -176 q 314 -15 283 -101 q 128 110 194 19 q 63 331 63 201 q 194 681 63 543 q 532 832 325 818 l 549 896 q 647 975 568 975 q 792 917 726 975 q 704 722 749 851 q 747 728 732 728 q 881 665 825 728 q 938 485 938 603 q 808 124 938 263 q 499 -32 679 -15 m 676 278 q 700 325 676 278 q 724 476 724 372 q 678 632 724 581 q 549 150 579 279 q 676 278 629 183 m 490 653 q 372 523 415 614 q 328 332 328 432 q 374 181 328 232 q 490 653 410 317 z "},"ù":{"ha":1061,"x_min":90,"x_max":1007,"o":"m 310 -35 q 139 25 188 -35 q 90 176 90 85 q 121 425 90 267 q 151 654 151 583 q 122 765 151 725 q 340 833 251 833 q 423 810 397 833 q 449 736 449 788 q 406 484 449 685 q 364 236 364 283 q 390 162 364 189 q 460 135 417 135 q 551 169 503 135 q 631 265 600 203 q 707 621 650 378 l 624 732 q 890 833 764 833 q 980 810 953 833 q 1007 741 1007 788 q 956 475 1007 694 q 906 163 906 256 q 949 33 906 71 q 785 -35 871 -35 q 663 3 700 -35 q 625 101 625 40 l 611 108 q 484 3 565 42 q 310 -35 403 -35 m 768 907 q 599 953 710 907 q 425 1000 489 1000 q 393 997 413 1000 q 379 1099 379 1044 q 457 1231 379 1231 q 574 1184 508 1231 q 713 1082 640 1138 q 846 1013 786 1026 q 820 933 842 958 q 768 907 799 907 z "},"ú":{"ha":1061,"x_min":90,"x_max":1007,"o":"m 310 -35 q 139 25 188 -35 q 90 176 90 85 q 121 425 90 267 q 151 654 151 583 q 122 765 151 725 q 340 833 251 833 q 423 810 397 833 q 449 736 449 788 q 406 484 449 685 q 364 236 364 283 q 390 162 364 189 q 460 135 417 135 q 551 169 503 135 q 631 265 600 203 q 707 621 650 378 l 624 732 q 890 833 764 833 q 980 810 953 833 q 1007 741 1007 788 q 956 475 1007 694 q 906 163 906 256 q 949 33 906 71 q 785 -35 871 -35 q 663 3 700 -35 q 625 101 625 40 l 611 108 q 484 3 565 42 q 310 -35 403 -35 m 461 907 q 409 933 431 907 q 383 1013 388 958 q 516 1082 443 1026 q 655 1184 589 1138 q 772 1231 721 1231 q 850 1099 850 1231 q 836 997 850 1044 q 804 1000 817 1000 q 630 953 740 1000 q 461 907 519 907 z "},"û":{"ha":1061,"x_min":90,"x_max":1007,"o":"m 310 -35 q 139 25 188 -35 q 90 176 90 85 q 121 425 90 267 q 151 654 151 583 q 122 765 151 725 q 340 833 251 833 q 423 810 397 833 q 449 736 449 788 q 406 484 449 685 q 364 236 364 283 q 390 162 364 189 q 460 135 417 135 q 551 169 503 135 q 631 265 600 203 q 707 621 650 378 l 624 732 q 890 833 764 833 q 980 810 953 833 q 1007 741 1007 788 q 956 475 1007 694 q 906 163 906 256 q 949 33 906 71 q 785 -35 871 -35 q 663 3 700 -35 q 625 101 625 40 l 611 108 q 484 3 565 42 q 310 -35 403 -35 m 867 1154 l 853 983 q 872 906 853 939 q 763 894 829 894 q 669 924 697 894 q 640 1008 640 953 q 650 1119 640 1029 l 614 1119 q 531 911 531 1017 q 375 894 454 894 q 296 921 296 894 q 468 1171 296 979 q 563 1195 492 1185 q 704 1206 633 1206 q 867 1154 867 1206 z "},"ü":{"ha":1061,"x_min":90,"x_max":1007,"o":"m 310 -35 q 139 25 188 -35 q 90 176 90 85 q 121 425 90 267 q 151 654 151 583 q 122 765 151 725 q 340 833 251 833 q 423 810 397 833 q 449 736 449 788 q 406 484 449 685 q 364 236 364 283 q 390 162 364 189 q 460 135 417 135 q 551 169 503 135 q 631 265 600 203 q 707 621 650 378 l 624 732 q 890 833 764 833 q 980 810 953 833 q 1007 741 1007 788 q 956 475 1007 694 q 906 163 906 256 q 949 33 906 71 q 785 -35 871 -35 q 663 3 700 -35 q 625 101 625 40 l 611 108 q 484 3 565 42 q 310 -35 403 -35 m 978 1065 q 978 1037 978 1065 q 926 967 978 1008 q 811 925 875 925 q 710 953 747 925 q 674 1029 674 981 q 728 1140 674 1100 q 844 1179 783 1179 q 941 1151 904 1179 q 978 1065 978 1122 m 560 1065 q 560 1037 560 1065 q 508 967 560 1008 q 393 925 457 925 q 292 953 329 925 q 256 1029 256 981 q 310 1140 256 1100 q 426 1179 365 1179 q 523 1151 486 1179 q 560 1065 560 1122 z "},"ý":{"ha":965,"x_min":35,"x_max":924,"o":"m 461 28 q 331 4 396 4 q 221 43 265 4 q 169 149 176 82 q 157 342 163 215 q 146 522 151 469 q 35 774 128 699 q 199 833 100 833 q 293 805 253 833 q 358 730 333 776 q 397 610 382 683 q 421 279 421 488 q 417 158 421 228 l 497 158 q 640 685 640 544 q 619 774 640 732 q 789 833 717 833 q 924 678 924 833 q 810 243 924 554 q 786 176 789 186 q 285 -326 610 -326 q 122 -284 186 -326 q 58 -173 58 -242 q 110 -29 58 -104 q 276 -124 176 -124 q 383 -86 333 -124 q 461 28 432 -49 m 411 907 q 359 933 381 907 q 333 1013 338 958 q 466 1082 393 1026 q 605 1184 539 1138 q 722 1231 671 1231 q 800 1099 800 1231 q 786 997 800 1044 q 754 1000 767 1000 q 580 953 690 1000 q 411 907 469 907 z "},"þ":{"ha":1050,"x_min":63,"x_max":988,"o":"m 451 629 l 465 622 q 582 778 506 722 q 762 835 658 835 q 926 741 865 835 q 988 508 988 647 q 857 169 988 322 q 686 48 793 94 q 447 1 579 1 q 342 8 407 1 q 338 -82 338 -40 q 381 -208 338 -171 q 217 -276 303 -276 q 97 -234 131 -276 q 63 -104 63 -192 q 207 864 63 78 l 129 975 q 403 1076 303 1076 q 483 1053 460 1076 q 507 962 507 1031 q 451 629 507 893 m 399 299 l 367 138 q 635 248 535 142 q 736 481 736 354 q 710 585 736 546 q 636 625 685 625 q 399 299 464 625 z "},"ÿ":{"ha":965,"x_min":35,"x_max":924,"o":"m 461 28 q 331 4 396 4 q 221 43 265 4 q 169 149 176 82 q 157 342 163 215 q 146 522 151 469 q 35 774 128 699 q 199 833 100 833 q 293 805 253 833 q 358 730 333 776 q 397 610 382 683 q 421 279 421 488 q 417 158 421 228 l 497 158 q 640 685 640 544 q 619 774 640 732 q 789 833 717 833 q 924 678 924 833 q 810 243 924 554 q 786 176 789 186 q 285 -326 610 -326 q 122 -284 186 -326 q 58 -173 58 -242 q 110 -29 58 -104 q 276 -124 176 -124 q 383 -86 333 -124 q 461 28 432 -49 m 908 1065 q 908 1037 908 1065 q 857 967 908 1008 q 742 925 806 925 q 641 953 678 925 q 604 1029 604 981 q 659 1140 604 1100 q 774 1179 714 1179 q 872 1151 835 1179 q 908 1065 908 1122 m 490 1065 q 490 1037 490 1065 q 439 967 490 1008 q 324 925 388 925 q 223 953 260 925 q 186 1029 186 981 q 241 1140 186 1100 q 356 1179 296 1179 q 453 1151 417 1179 q 490 1065 490 1122 z "},"ı":{"ha":539,"x_min":90,"x_max":479,"o":"m 255 -35 q 211 -35 255 -35 q 129 8 168 -35 q 90 140 90 51 q 179 613 90 228 l 101 729 q 375 833 275 833 q 456 809 432 833 q 479 731 479 785 q 428 486 479 710 q 376 167 376 263 q 419 33 376 71 q 255 -35 342 -35 z "},"Ł":{"ha":763,"x_min":-53,"x_max":754,"o":"m 83 179 q 106 382 83 235 q 60 378 81 378 q -53 467 -53 378 q 4 599 -53 533 q 81 585 39 585 q 139 586 124 585 l 171 758 l 97 907 q 383 1008 254 1008 q 490 878 490 1008 q 458 667 490 839 q 551 682 519 682 q 664 593 664 682 q 607 461 664 526 q 527 475 572 475 q 421 467 482 475 q 383 189 383 261 l 533 189 q 746 243 639 204 q 754 175 754 218 q 706 29 754 93 q 574 -35 658 -35 q 376 -4 517 -35 q 253 -36 318 -36 q 122 16 161 -36 q 83 179 83 68 z "},"ł":{"ha":535,"x_min":19,"x_max":569,"o":"m 460 681 l 479 682 q 569 613 569 682 q 524 510 569 560 q 465 524 496 524 q 426 522 435 524 q 383 194 383 307 q 426 33 383 82 q 250 -35 329 -35 q 134 17 171 -35 q 97 179 97 69 q 129 428 97 233 q 110 426 122 426 q 19 496 19 426 q 65 599 19 549 q 156 585 93 585 l 207 864 l 129 975 q 403 1076 303 1076 q 483 1053 460 1076 q 507 968 507 1031 q 460 681 507 906 z "},"Œ":{"ha":1333,"x_min":35,"x_max":1361,"o":"m 1303 175 q 1255 29 1303 93 q 1131 -35 1207 -35 q 942 -10 1054 -35 q 736 14 829 14 q 515 -35 631 -35 q 164 92 293 -35 q 35 425 35 219 q 182 847 35 689 q 585 1006 329 1006 q 778 978 658 1006 q 1017 951 897 951 q 1350 1001 1138 951 q 1361 911 1361 956 q 1287 742 1361 799 q 1096 685 1213 685 q 940 718 1017 685 q 901 514 929 656 q 989 504 953 504 q 1114 536 1046 515 q 1121 459 1121 513 q 1078 374 1121 406 q 981 342 1035 342 q 872 354 928 342 q 857 189 857 269 l 1082 189 q 1294 243 1188 204 q 1303 175 1303 218 m 557 171 q 650 799 557 286 q 475 739 549 799 q 338 431 338 629 q 388 243 338 318 q 526 168 438 168 q 557 171 547 168 z "},"œ":{"ha":1414,"x_min":63,"x_max":1365,"o":"m 1318 190 q 1218 37 1318 108 q 959 -35 1118 -35 q 697 38 800 -35 q 451 -35 582 -35 q 167 65 271 -35 q 63 331 63 165 q 204 694 63 554 q 564 833 346 833 q 800 754 694 833 q 1103 833 935 833 q 1299 776 1232 833 q 1365 624 1365 718 q 1240 409 1365 494 q 851 322 1114 324 q 892 183 856 233 q 982 132 928 132 q 1076 168 1036 132 q 1115 286 1115 204 q 1318 190 1318 286 m 499 136 q 596 165 551 136 q 564 331 564 240 q 668 640 564 507 q 590 675 638 675 q 450 619 508 675 q 343 346 343 518 q 384 197 343 257 q 499 136 425 136 m 1079 671 q 949 600 1008 671 q 864 433 890 529 q 1073 497 1003 444 q 1143 607 1143 549 q 1126 653 1143 635 q 1079 671 1108 671 z "},"Š":{"ha":956,"x_min":49,"x_max":942,"o":"m 575 1007 q 850 965 758 1007 q 942 830 942 922 q 885 690 942 738 q 757 642 829 642 q 627 678 685 642 q 547 776 569 715 q 449 742 496 776 q 390 654 403 708 q 785 499 665 588 q 904 271 904 410 q 778 49 904 132 q 440 -35 653 -35 q 138 24 226 -35 q 49 178 49 82 q 108 354 49 274 q 220 242 138 292 q 383 192 303 192 q 572 286 532 192 q 221 415 342 317 q 100 651 100 513 q 150 817 100 744 q 278 929 200 890 q 575 1007 431 1007 m 776 1078 q 572 1040 699 1040 q 406 1119 406 1040 l 406 1235 q 363 1325 406 1294 q 493 1351 428 1351 q 606 1247 606 1351 q 590 1126 606 1221 l 632 1126 q 689 1278 689 1186 q 686 1326 689 1293 q 819 1351 751 1351 q 926 1297 926 1351 q 836 1144 926 1246 q 803 1107 825 1132 q 776 1078 781 1082 z "},"š":{"ha":893,"x_min":56,"x_max":838,"o":"m 519 649 q 438 605 468 633 q 383 524 407 576 q 714 424 618 489 q 810 238 810 358 q 767 105 810 161 q 658 19 724 49 q 407 -35 531 -35 q 56 117 56 -35 q 124 269 56 193 q 228 186 158 221 q 365 151 299 151 q 504 253 481 151 q 199 347 293 278 q 104 543 104 417 q 170 711 104 643 q 334 806 236 779 q 555 833 432 833 q 758 787 678 833 q 838 674 838 740 q 791 571 838 607 q 690 535 744 535 q 590 564 635 535 q 519 649 544 593 m 671 918 q 467 881 593 881 q 300 960 300 881 l 300 1075 q 257 1165 300 1135 q 388 1192 322 1192 q 500 1088 500 1192 q 485 967 500 1061 l 526 967 q 583 1118 583 1026 q 581 1167 583 1133 q 714 1192 646 1192 q 821 1138 821 1192 q 731 986 821 1086 q 697 947 719 972 q 671 918 675 922 z "},"Ÿ":{"ha":933,"x_min":-14,"x_max":947,"o":"m 169 250 q 164 367 168 278 q 156 502 160 456 q 141 629 153 549 q 111 758 129 710 q -14 942 67 886 q 162 1007 94 1007 q 274 985 229 1007 q 347 931 318 963 q 397 844 375 900 q 431 743 419 789 q 449 625 442 697 q 459 508 457 553 q 463 391 461 464 q 467 290 465 318 l 486 290 q 585 586 540 419 q 631 851 631 753 q 610 942 631 900 q 794 1007 714 1007 q 947 846 947 1007 q 885 571 947 764 q 738 197 822 378 q 512 -142 628 -37 q 214 -246 396 -246 q 68 -214 133 -246 q -11 -87 -11 -176 q 57 96 -11 1 q 139 27 88 51 q 252 3 190 3 q 369 37 314 3 q 447 135 424 71 q 313 117 374 117 q 169 250 181 117 m 899 1211 q 899 1183 899 1211 q 847 1113 899 1154 q 732 1071 796 1071 q 631 1099 668 1071 q 594 1175 594 1126 q 649 1285 594 1246 q 765 1325 704 1325 q 862 1297 825 1325 q 899 1211 899 1268 m 481 1211 q 481 1183 481 1211 q 429 1113 481 1154 q 314 1071 378 1071 q 213 1099 250 1071 q 176 1175 176 1126 q 231 1285 176 1246 q 347 1325 286 1325 q 444 1297 407 1325 q 481 1211 481 1268 z "},"Ž":{"ha":936,"x_min":-28,"x_max":936,"o":"m 121 -28 q 13 10 54 -28 q -28 118 -28 49 q 26 244 -28 188 q 174 301 79 301 l 440 657 q 189 716 282 661 q 96 883 96 771 q 110 1001 96 936 q 384 934 208 961 q 642 907 560 907 q 797 1006 699 1006 q 899 965 863 1006 q 936 864 936 924 q 819 715 936 769 l 464 271 l 708 244 l 876 321 q 888 211 888 271 q 826 27 888 89 q 667 -35 764 -35 q 306 75 479 -35 q 121 -28 219 -28 m 711 1057 q 507 1019 633 1019 q 340 1099 340 1019 l 340 1214 q 297 1304 340 1274 q 428 1331 364 1331 q 540 1226 540 1331 q 525 1106 540 1200 l 567 1106 q 624 1257 624 1165 q 621 1306 624 1272 q 754 1331 686 1331 q 861 1276 861 1331 q 772 1125 861 1225 q 738 1086 760 1111 q 711 1057 715 1061 z "},"ž":{"ha":867,"x_min":21,"x_max":839,"o":"m 306 35 q 160 -25 229 -25 q 56 14 90 -25 q 21 112 21 53 q 64 221 21 171 q 186 281 107 271 l 414 522 q 176 574 242 528 q 111 714 111 619 q 126 840 111 751 q 342 770 219 801 q 533 736 464 739 q 599 806 556 779 q 703 833 643 833 q 801 797 764 833 q 839 703 839 761 q 738 557 839 601 l 450 228 q 593 199 540 200 l 782 272 q 811 130 811 197 q 747 14 811 63 q 593 -35 683 -35 q 403 0 503 -35 q 306 35 368 11 m 671 918 q 467 881 593 881 q 300 960 300 881 l 300 1075 q 257 1165 300 1135 q 388 1192 322 1192 q 500 1088 500 1192 q 485 967 500 1061 l 526 967 q 583 1118 583 1026 q 581 1167 583 1133 q 714 1192 646 1192 q 821 1138 821 1192 q 731 986 821 1086 q 697 947 719 972 q 671 918 675 922 z "},"ƒ":{"ha":819,"x_min":74,"x_max":811,"o":"m 135 285 q 81 318 81 285 q 147 424 81 358 q 184 421 158 421 q 222 422 210 421 q 269 738 232 625 q 372 903 306 846 q 564 971 449 971 q 811 810 811 971 q 776 663 811 747 q 602 710 710 689 q 422 733 494 731 l 549 497 q 680 515 621 515 q 739 478 739 515 q 674 374 739 433 q 633 379 656 379 q 579 376 610 379 l 547 50 q 239 -292 514 -292 q 74 -225 133 -292 q 183 -8 154 -112 q 218 294 213 96 q 135 285 167 285 z "},"ˆ":{"ha":836,"x_min":111,"x_max":688,"o":"m 682 1154 l 668 983 q 688 906 668 939 q 578 894 644 894 q 484 924 513 894 q 456 1008 456 953 q 465 1119 456 1029 l 429 1119 q 346 911 346 1017 q 190 894 269 894 q 111 921 111 894 q 283 1171 111 979 q 378 1195 307 1185 q 519 1206 449 1206 q 682 1154 682 1206 z "},"ˇ":{"ha":836,"x_min":132,"x_max":696,"o":"m 546 918 q 342 881 468 881 q 175 960 175 881 l 175 1075 q 132 1165 175 1135 q 263 1192 197 1192 q 375 1088 375 1192 q 360 967 375 1061 l 401 967 q 458 1118 458 1026 q 456 1167 458 1133 q 589 1192 521 1192 q 696 1138 696 1192 q 606 986 696 1086 q 572 947 594 972 q 546 918 550 922 z "},"˘":{"ha":660,"x_min":79,"x_max":585,"o":"m 268 919 q 130 960 181 919 q 79 1088 79 1001 q 93 1192 79 1143 q 318 1106 167 1106 q 457 1136 388 1106 q 578 1219 526 1167 q 585 1153 585 1181 q 488 979 585 1039 q 268 919 390 919 z "},"˙":{"ha":564,"x_min":97,"x_max":467,"o":"m 467 1093 q 407 953 467 1007 q 265 900 347 900 q 140 936 182 900 q 97 1032 97 972 q 157 1172 97 1118 q 299 1226 217 1226 q 424 1190 382 1226 q 467 1093 467 1153 z "},"˚":{"ha":669,"x_min":99,"x_max":567,"o":"m 242 1057 q 260 994 242 1019 q 315 968 279 968 q 380 1010 350 968 q 410 1104 410 1051 q 326 1183 410 1183 q 290 1181 318 1183 q 242 1057 242 1126 m 567 1103 q 495 940 567 1001 q 317 878 424 878 q 154 925 210 878 q 99 1051 99 972 q 170 1215 99 1153 q 349 1276 242 1276 q 511 1229 456 1276 q 567 1103 567 1182 z "},"˛":{"ha":926,"x_min":238,"x_max":706,"o":"m 525 31 l 679 31 q 414 -186 414 -25 q 435 -239 414 -219 q 495 -258 456 -258 q 567 -219 535 -258 q 599 -132 599 -179 q 593 -97 599 -112 q 706 -212 706 -126 q 630 -339 706 -282 q 447 -396 554 -396 q 288 -350 339 -396 q 238 -233 238 -304 q 320 -53 238 -137 q 525 31 403 31 z "},"˜":{"ha":761,"x_min":97,"x_max":664,"o":"m 626 979 q 511 1007 571 1007 q 345 966 451 1007 q 186 925 239 925 q 97 1013 97 925 q 135 1158 97 1076 q 250 1131 190 1131 q 416 1172 310 1131 q 575 1213 522 1213 q 664 1125 664 1213 q 626 979 664 1061 z "},"˝":{"ha":1083,"x_min":93,"x_max":1004,"o":"m 544 1069 q 440 1027 501 1069 q 315 942 379 985 q 200 900 250 900 q 93 1010 131 900 q 225 1115 153 1031 q 281 1181 253 1149 q 419 1253 347 1253 q 490 1229 461 1253 q 544 1069 544 1185 m 1004 1069 q 900 1027 961 1069 q 774 942 839 985 q 660 900 710 900 q 553 1010 590 900 q 683 1115 613 1031 q 742 1181 713 1149 q 879 1253 807 1253 q 950 1229 921 1253 q 1004 1069 1004 1185 z "},"π":{"ha":1244,"x_min":111,"x_max":1171,"o":"m 363 824 q 1042 833 363 824 q 1138 804 1106 833 q 1171 704 1171 775 q 1140 574 1171 633 q 1032 600 1101 592 q 954 160 954 282 q 997 33 954 71 q 833 -35 919 -35 q 707 8 746 -35 q 668 138 668 51 q 754 599 668 225 l 524 585 q 450 172 450 274 q 493 33 450 71 q 328 -35 415 -35 q 203 8 242 -35 q 164 140 164 51 q 242 565 164 228 q 179 564 218 564 q 111 666 111 564 q 164 856 111 768 q 363 824 239 824 z "},"–":{"ha":1301,"x_min":21,"x_max":1281,"o":"m 318 590 l 1164 599 q 1281 493 1281 599 q 1253 379 1281 428 q 1016 406 1174 406 q 547 389 858 406 q 82 372 235 372 q 21 458 21 372 q 69 617 21 543 q 318 590 161 590 z "},"—":{"ha":1544,"x_min":21,"x_max":1524,"o":"m 375 590 l 1407 599 q 1524 493 1524 599 q 1494 378 1524 428 q 1213 406 1404 406 q 644 389 1022 406 q 82 372 267 372 q 21 458 21 372 q 69 618 21 544 q 375 590 194 590 z "},"‘":{"ha":460,"x_min":78,"x_max":456,"o":"m 308 864 l 406 739 q 350 622 403 672 q 228 572 297 572 q 118 619 158 572 q 78 732 78 667 q 175 988 78 876 q 435 1133 272 1100 l 456 1072 q 349 980 390 1042 q 308 864 308 918 z "},"’":{"ha":460,"x_min":74,"x_max":451,"o":"m 221 819 l 124 944 q 179 1061 126 1011 q 301 1111 232 1111 q 411 1064 371 1111 q 451 951 451 1017 q 354 695 451 807 q 94 550 257 583 l 74 611 q 180 703 139 642 q 221 819 221 765 z "},"‚":{"ha":463,"x_min":74,"x_max":451,"o":"m 221 51 l 124 176 q 179 293 126 243 q 301 343 232 343 q 411 296 371 343 q 451 183 451 249 q 354 -73 451 39 q 94 -218 257 -185 l 74 -157 q 180 -65 139 -126 q 221 51 221 -3 z "},"“":{"ha":882,"x_min":78,"x_max":878,"o":"m 308 864 l 406 739 q 350 622 403 672 q 228 572 297 572 q 118 619 158 572 q 78 732 78 667 q 175 988 78 876 q 435 1133 272 1100 l 456 1072 q 349 980 390 1042 q 308 864 308 918 m 731 864 l 828 739 q 772 622 825 672 q 650 572 719 572 q 540 619 581 572 q 500 732 500 667 q 597 988 500 876 q 857 1133 694 1100 l 878 1072 q 772 980 813 1042 q 731 864 731 918 z "},"”":{"ha":882,"x_min":74,"x_max":874,"o":"m 643 819 l 546 944 q 601 1061 549 1011 q 724 1111 654 1111 q 833 1064 793 1111 q 874 951 874 1017 q 776 695 874 807 q 517 550 679 583 l 496 611 q 602 703 561 642 q 643 819 643 765 m 221 819 l 124 944 q 179 1061 126 1011 q 301 1111 232 1111 q 411 1064 371 1111 q 451 951 451 1017 q 354 695 451 807 q 94 550 257 583 l 74 611 q 180 703 139 642 q 221 819 221 765 z "},"„":{"ha":882,"x_min":74,"x_max":874,"o":"m 643 51 l 546 176 q 601 293 549 243 q 724 343 654 343 q 833 296 793 343 q 874 183 874 249 q 776 -73 874 39 q 517 -218 679 -185 l 496 -157 q 602 -65 561 -126 q 643 51 643 -3 m 221 51 l 124 176 q 179 293 126 243 q 301 343 232 343 q 411 296 371 343 q 451 183 451 249 q 354 -73 451 39 q 94 -218 257 -185 l 74 -157 q 180 -65 139 -126 q 221 51 221 -3 z "},"†":{"ha":983,"x_min":69,"x_max":963,"o":"m 131 594 q 69 679 69 594 q 117 838 69 764 q 297 813 185 813 l 415 813 l 446 1053 q 489 1174 456 1133 q 596 1214 522 1214 q 746 1167 669 1214 q 696 1055 717 1121 q 668 942 675 989 q 651 818 661 896 q 846 821 782 821 q 963 715 963 821 q 935 601 963 650 q 789 628 875 628 q 629 624 703 628 q 591 183 615 482 q 554 -208 567 -117 q 437 -304 542 -304 q 236 -233 332 -304 q 321 68 292 -131 q 390 606 358 335 q 131 594 215 594 z "},"‡":{"ha":983,"x_min":29,"x_max":963,"o":"m 90 79 q 29 164 29 79 q 76 322 29 249 q 351 297 144 297 l 390 606 q 131 594 215 594 q 69 679 69 594 q 117 838 69 764 q 415 813 185 813 l 446 1053 q 489 1174 456 1133 q 596 1214 522 1214 q 746 1167 669 1214 q 696 1055 717 1121 q 668 942 675 989 q 651 818 661 896 q 846 821 782 821 q 963 715 963 821 q 935 601 963 650 q 789 628 875 628 q 629 624 703 628 q 613 447 622 561 q 600 303 603 332 q 806 306 739 306 q 922 200 922 306 q 894 86 922 135 q 747 113 835 113 q 585 108 660 113 q 554 -208 564 -128 q 437 -304 542 -304 q 236 -233 332 -304 q 285 -108 271 -164 q 324 89 300 -42 q 90 79 188 79 z "},"•":{"ha":539,"x_min":75,"x_max":464,"o":"m 258 243 q 217 243 258 243 q 126 294 176 243 q 75 424 75 344 q 137 566 75 503 q 280 629 199 629 q 413 578 361 629 q 464 449 464 528 q 401 306 464 369 q 258 243 339 243 z "},"…":{"ha":1388,"x_min":69,"x_max":1318,"o":"m 222 -35 q 188 -35 222 -35 q 112 8 154 -35 q 69 116 69 50 q 121 235 69 182 q 240 288 172 288 q 351 245 308 288 q 393 137 393 203 q 342 18 393 71 q 222 -35 290 -35 m 685 -35 q 651 -35 685 -35 q 574 8 617 -35 q 532 116 532 50 q 583 235 532 182 q 703 288 635 288 q 813 245 771 288 q 856 137 856 203 q 804 18 856 71 q 685 -35 753 -35 m 1147 -35 q 1113 -35 1147 -35 q 1037 8 1079 -35 q 994 116 994 50 q 1046 235 994 182 q 1165 288 1097 288 q 1276 245 1233 288 q 1318 137 1318 203 q 1267 18 1318 71 q 1147 -35 1215 -35 z "},"‰":{"ha":2008,"x_min":25,"x_max":2008,"o":"m 904 285 q 984 59 904 144 q 1196 -26 1064 -26 q 1426 50 1328 -26 q 1649 -26 1507 -26 q 1899 84 1790 -26 q 2008 367 2008 194 q 1844 617 2008 579 q 1833 664 1842 653 q 1750 678 1801 678 q 1475 589 1586 678 q 1410 617 1447 608 q 1399 664 1407 653 q 1315 678 1367 678 q 1018 569 1132 678 q 904 285 904 461 m 25 579 q 105 353 25 439 q 331 268 185 268 q 585 378 476 268 q 694 661 694 489 q 531 911 694 874 q 519 958 528 947 q 436 972 488 972 q 139 864 253 972 q 25 579 25 756 m 458 18 q 603 246 522 89 q 760 572 664 371 q 915 890 857 772 q 1063 1007 972 1007 q 1156 971 1115 1007 q 1017 758 1092 908 q 831 359 942 607 q 685 38 721 111 q 578 -35 650 -35 q 458 18 507 -35 m 1646 132 q 1596 170 1614 132 q 1578 268 1578 208 q 1638 482 1578 390 q 1674 486 1658 486 q 1761 369 1761 486 q 1726 206 1761 279 q 1646 132 1690 132 m 332 426 q 282 465 300 426 q 264 563 264 503 q 324 776 264 685 q 360 781 344 781 q 447 664 447 781 q 412 500 447 574 q 332 426 376 426 m 1211 132 q 1161 170 1179 132 q 1143 268 1143 208 q 1203 482 1143 390 q 1239 486 1224 486 q 1326 369 1326 486 q 1291 206 1326 279 q 1211 132 1256 132 z "},"‹":{"ha":531,"x_min":81,"x_max":467,"o":"m 393 338 q 311 25 381 25 q 192 88 263 25 q 86 214 122 151 q 81 294 81 242 q 119 584 81 435 q 214 740 158 733 q 386 763 338 750 q 467 788 435 776 q 401 521 467 586 q 336 478 369 489 q 272 467 303 467 q 185 476 240 467 l 175 415 q 393 338 271 338 z "},"›":{"ha":531,"x_min":64,"x_max":450,"o":"m 138 465 q 219 778 150 778 q 338 715 268 778 q 444 589 408 651 q 450 508 450 561 q 411 219 450 368 q 317 63 372 69 q 144 40 193 53 q 64 15 96 26 q 129 282 64 217 q 194 325 161 314 q 259 336 228 336 q 346 326 290 336 l 356 388 q 138 465 260 465 z "},"⁄":{"ha":1597,"x_min":450,"x_max":1147,"o":"m 450 18 q 594 246 514 89 q 752 572 656 371 q 906 890 849 772 q 1054 1007 964 1007 q 1147 971 1107 1007 q 1008 758 1083 908 q 823 359 933 607 q 677 38 713 111 q 570 -35 642 -35 q 450 18 499 -35 z "},"⁰":{"ha":718,"x_min":25,"x_max":694,"o":"m 25 579 q 139 864 25 756 q 436 972 253 972 q 519 958 488 972 q 531 911 528 947 q 694 661 694 874 q 585 378 694 489 q 331 268 476 268 q 105 353 185 268 q 25 579 25 439 m 332 426 q 412 500 376 426 q 447 664 447 574 q 360 781 447 781 q 324 776 344 781 q 264 563 264 685 q 282 465 264 503 q 332 426 300 426 z "},"⁴":{"ha":690,"x_min":19,"x_max":644,"o":"m 19 488 q 84 684 19 532 q 149 903 149 836 q 136 946 149 929 q 267 972 213 972 q 418 867 418 972 q 373 707 418 794 q 254 544 328 619 l 336 544 q 396 674 361 614 q 483 719 425 699 q 582 739 542 739 q 633 731 622 739 q 644 707 644 724 q 622 577 644 690 q 600 403 600 464 q 631 315 600 342 q 469 268 550 268 q 349 303 388 268 q 307 394 311 338 q 207 388 254 388 q 19 488 19 388 z "},"€":{"ha":904,"x_min":7,"x_max":871,"o":"m 92 431 q 38 460 38 431 q 99 553 38 496 q 135 550 111 550 q 310 853 179 731 q 633 976 440 976 q 871 829 871 976 q 838 692 871 776 q 700 732 779 715 q 572 751 621 749 q 492 606 526 708 q 627 628 571 628 q 683 594 683 628 q 624 503 683 561 q 569 508 606 508 q 460 492 533 508 q 449 396 449 440 q 590 421 528 421 q 651 388 651 421 q 592 296 651 354 q 544 301 574 301 q 460 292 515 301 q 597 181 493 181 q 790 240 701 181 q 801 168 801 193 q 724 17 801 71 q 507 -36 647 -36 q 272 38 367 -36 q 140 233 178 111 q 60 224 89 224 q 7 253 7 224 q 68 346 7 285 q 118 343 90 343 q 117 432 117 361 q 92 431 108 431 z "},"™":{"ha":1231,"x_min":44,"x_max":1221,"o":"m 382 821 l 347 822 q 307 585 307 607 q 328 478 307 514 q 236 444 283 444 q 168 472 189 444 q 147 556 147 500 q 190 847 147 613 q 50 822 124 839 q 44 871 44 840 q 75 960 44 931 q 149 990 106 990 q 267 976 193 990 q 379 960 342 961 q 497 989 456 975 q 504 940 504 969 q 470 851 504 881 q 382 821 436 821 m 1093 444 q 1069 444 1093 444 q 1025 472 1046 444 q 1004 554 1004 500 q 1039 801 1004 608 l 1028 801 q 953 660 983 742 q 917 514 924 579 q 833 479 882 479 q 790 503 808 479 q 733 801 747 560 l 721 801 q 685 580 685 644 q 707 478 685 515 q 615 444 661 444 q 547 472 568 444 q 526 555 526 500 q 572 865 526 610 l 533 944 q 677 999 618 999 q 767 979 736 999 q 850 711 829 938 l 858 711 q 1164 997 957 997 q 1221 929 1221 997 q 1192 760 1221 907 q 1164 585 1164 613 q 1186 478 1164 513 q 1093 444 1140 444 z "},"Ω":{"ha":1158,"x_min":-8,"x_max":1119,"o":"m 899 199 l 953 200 q 1119 101 1119 200 q 1072 -35 1119 38 q 934 -19 994 -19 q 824 -27 874 -19 q 738 -35 774 -35 q 669 -8 701 -35 q 638 76 638 18 q 699 342 638 171 q 760 603 760 514 q 608 800 760 800 q 422 517 422 800 q 449 321 422 444 q 476 128 476 197 q 344 -35 476 -35 q 267 -27 319 -35 q 157 -19 215 -19 q 21 -35 99 -19 q -8 75 -8 28 q 178 200 -8 200 q 240 197 196 200 l 240 213 q 127 367 165 271 q 89 542 89 464 q 103 679 89 621 q 156 799 118 738 q 253 905 194 860 q 409 978 313 950 q 620 1007 506 1007 q 818 983 735 1007 q 952 923 901 960 q 1036 833 1003 886 q 1096 617 1096 740 q 1042 385 1096 493 q 899 213 989 276 l 899 199 z "},"∂":{"ha":994,"x_min":63,"x_max":868,"o":"m 420 -292 q 334 -292 420 -292 q 156 -191 249 -292 q 63 54 63 -90 q 178 353 63 221 q 321 454 233 415 q 514 493 408 493 q 576 488 550 493 q 422 765 522 642 q 189 961 321 889 q 415 1042 286 1042 q 649 913 544 1042 q 811 589 754 783 q 868 190 868 394 q 828 -21 868 74 q 725 -172 789 -115 q 420 -292 592 -292 m 328 47 q 359 -77 328 -35 q 438 -119 390 -119 q 563 -41 507 -119 q 619 167 619 38 q 589 288 619 246 q 511 329 558 329 q 385 251 442 329 q 328 47 328 174 z "},"∆":{"ha":1194,"x_min":7,"x_max":1139,"o":"m 750 1076 q 747 1049 747 1068 q 808 808 747 951 q 943 545 869 665 q 1078 306 1017 425 q 1139 131 1139 186 q 1089 37 1139 75 q 905 -25 1039 -1 q 597 -49 771 -49 q 326 -33 422 -49 q 176 6 231 -17 q 83 64 121 29 q 31 126 46 99 q 7 189 17 154 q 101 285 50 221 q 190 416 151 350 q 335 660 228 482 q 494 928 442 838 q 606 1048 547 1019 q 750 1076 664 1076 m 606 654 q 404 253 507 418 q 576 224 483 224 q 771 253 668 224 q 606 654 665 446 z "},"∏":{"ha":1439,"x_min":69,"x_max":1418,"o":"m 386 986 l 1315 996 q 1392 966 1367 996 q 1418 860 1418 936 q 1392 726 1418 785 q 1219 756 1322 750 q 1178 489 1208 678 q 1106 -25 1106 28 q 1147 -226 1106 -160 q 974 -289 1064 -289 q 844 -237 883 -289 q 806 -74 806 -185 q 840 263 806 -4 q 913 753 874 531 q 576 733 858 751 q 536 469 565 658 q 465 -25 465 26 q 507 -226 465 -160 q 333 -289 424 -289 q 204 -237 243 -289 q 165 -92 165 -185 q 197 251 165 0 q 268 719 229 503 q 122 718 219 718 q 69 826 69 718 q 114 1018 69 933 q 386 986 221 986 z "},"∑":{"ha":1210,"x_min":83,"x_max":1113,"o":"m 474 1013 l 972 1021 q 1113 906 1113 1021 q 1067 726 1113 803 q 842 758 1000 758 q 665 749 726 758 q 555 730 603 740 q 490 717 507 719 q 593 610 539 656 q 668 549 647 565 q 739 495 689 532 q 817 436 789 458 q 876 319 876 390 q 874 268 876 301 q 471 26 715 238 q 808 -7 643 -7 q 1040 24 972 -7 q 1060 -81 1060 -25 q 892 -267 1060 -267 l 367 -257 q 114 -293 197 -257 q 83 -160 83 -235 q 107 -30 83 -86 q 179 78 131 26 q 272 167 228 129 q 385 259 315 204 q 492 346 456 314 q 274 581 386 425 q 161 840 161 738 q 178 950 161 893 q 222 1043 196 1007 q 474 1013 300 1013 z "},"−":{"ha":1018,"x_min":139,"x_max":879,"o":"m 360 611 l 769 619 q 879 514 879 619 q 854 404 879 453 q 706 426 800 426 q 444 410 613 426 q 193 393 276 393 q 139 482 139 393 q 182 635 139 571 q 360 611 257 611 z "},"√":{"ha":1128,"x_min":63,"x_max":1499,"o":"m 125 -140 l 138 242 q 63 481 138 403 q 240 540 160 540 q 402 451 353 540 q 451 217 451 361 q 429 -117 451 139 l 490 -117 q 645 475 531 -6 q 775 1060 760 956 q 946 1263 804 1263 q 1050 1251 967 1263 q 1208 1240 1133 1240 q 1449 1281 1396 1240 q 1499 1134 1499 1215 q 1412 1029 1499 1053 q 1076 1006 1325 1006 q 925 392 1043 818 q 772 -117 807 -33 l 790 -197 q 618 -289 731 -250 q 381 -328 506 -328 q 191 -284 257 -328 q 125 -140 125 -240 z "},"∞":{"ha":1279,"x_min":83,"x_max":1257,"o":"m 688 725 l 718 686 q 841 822 771 769 q 992 874 911 874 q 1164 808 1086 874 q 1231 701 1206 774 q 1257 526 1257 629 q 1172 233 1257 343 q 946 124 1086 124 q 653 272 779 124 l 621 310 q 498 176 568 228 q 349 125 428 125 q 178 189 256 125 q 109 297 135 224 q 83 472 83 369 q 169 765 83 656 q 394 875 254 875 q 557 834 481 875 q 688 725 633 793 m 956 654 q 796 590 875 654 l 833 543 q 917 451 889 474 q 991 428 946 428 q 1065 459 1036 428 q 1093 541 1093 490 q 1053 623 1093 592 q 956 654 1013 654 m 385 344 q 544 408 465 344 l 507 456 q 423 548 451 525 q 349 571 394 571 q 276 540 304 571 q 247 458 247 508 q 288 376 247 407 q 385 344 328 344 z "},"∫":{"ha":726,"x_min":-42,"x_max":726,"o":"m 511 678 l 460 90 q 380 -228 440 -129 q 197 -326 319 -326 q 65 -294 124 -326 q -42 -171 6 -261 q 115 -99 68 -158 q 172 72 163 -39 l 224 660 q 303 978 243 881 q 486 1076 364 1076 q 619 1044 560 1076 q 726 921 679 1011 q 568 849 615 908 q 511 678 521 789 z "},"≈":{"ha":1018,"x_min":135,"x_max":883,"o":"m 831 668 q 674 704 760 704 q 434 646 589 704 q 218 588 279 588 q 135 685 135 588 q 189 838 135 758 q 338 811 257 811 q 551 865 418 811 q 756 918 685 918 q 883 808 883 918 q 831 668 883 738 m 831 257 q 674 293 760 293 q 434 235 589 293 q 218 176 279 176 q 135 274 135 176 q 189 426 135 347 q 338 400 257 400 q 551 453 418 400 q 756 507 685 507 q 883 397 883 507 q 831 257 883 326 z "},"≠":{"ha":1018,"x_min":139,"x_max":879,"o":"m 485 7 q 331 -143 443 -143 q 206 -99 263 -143 q 322 160 263 -46 l 335 207 q 193 201 272 201 q 139 290 139 201 q 182 443 139 379 q 360 419 257 419 l 392 419 l 439 615 q 193 600 289 600 q 139 689 139 600 q 182 842 139 778 q 351 818 257 818 q 488 819 446 818 q 542 1047 521 969 q 652 1136 564 1136 q 813 1071 740 1136 q 706 825 753 982 q 769 826 726 826 q 879 721 879 826 q 854 611 879 660 q 701 633 800 633 q 650 632 667 633 l 596 424 q 769 428 683 428 q 879 322 879 428 q 854 213 879 261 q 715 235 800 235 q 544 228 631 235 q 485 7 517 118 z "},"≤":{"ha":1018,"x_min":139,"x_max":879,"o":"m 847 772 q 701 734 778 765 q 529 654 624 703 q 390 588 435 606 q 583 508 457 551 q 789 431 710 464 q 868 372 868 399 q 823 278 868 329 q 726 201 778 228 q 603 290 682 249 q 403 389 524 332 q 231 474 283 446 q 161 550 178 501 q 143 671 144 599 q 304 725 208 675 q 481 833 400 775 q 746 986 693 986 q 817 918 788 986 q 847 772 847 850 m 360 40 l 769 49 q 879 -57 879 49 q 854 -167 879 -118 q 706 -144 800 -144 q 444 -161 613 -144 q 193 -178 276 -178 q 139 -89 139 -178 q 182 64 139 0 q 360 40 257 40 z "},"≥":{"ha":1018,"x_min":139,"x_max":879,"o":"m 164 410 q 310 448 233 417 q 482 528 388 479 q 621 594 576 576 q 428 674 554 631 q 222 751 301 718 q 143 810 143 783 q 188 903 143 853 q 285 981 233 954 q 408 892 329 933 q 608 793 488 850 q 781 708 728 736 q 850 632 833 681 q 868 511 867 583 q 707 457 803 507 q 531 350 611 407 q 265 196 318 196 q 194 264 224 196 q 164 410 164 332 m 360 40 l 769 49 q 879 -57 879 49 q 854 -167 879 -118 q 706 -144 800 -144 q 444 -161 613 -144 q 193 -178 276 -178 q 139 -89 139 -178 q 182 64 139 0 q 360 40 257 40 z "},"◊":{"ha":1121,"x_min":35,"x_max":1065,"o":"m 1065 353 q 901 185 986 306 q 813 64 872 144 q 706 -85 754 -17 q 614 -218 657 -154 q 519 -304 571 -282 q 392 -326 467 -326 q 393 -306 393 -321 q 337 -121 393 -231 q 214 81 281 -11 q 35 399 35 326 q 121 470 75 421 q 198 565 167 519 q 287 688 229 610 q 394 835 344 767 q 486 968 443 904 q 581 1054 529 1032 q 708 1076 633 1076 q 707 1056 707 1069 q 763 871 707 981 q 886 669 819 761 q 1065 353 1065 425 m 722 375 q 568 689 619 531 q 376 375 469 501 q 531 63 479 222 q 722 375 629 253 z "},"ﬁ":{"ha":1125,"x_min":67,"x_max":1125,"o":"m 76 440 q 67 503 67 471 q 104 604 67 569 q 200 640 142 639 q 190 735 190 683 q 269 998 190 888 q 493 1108 349 1108 q 617 1061 572 1108 q 663 951 663 1014 q 619 845 663 889 q 507 801 576 801 q 383 835 438 801 l 364 819 l 413 654 q 560 692 485 664 q 569 617 569 661 q 544 535 569 574 q 469 486 518 497 q 381 -97 381 76 q 424 -224 381 -186 q 242 -292 322 -292 q 125 -235 163 -292 q 88 -79 88 -178 q 174 464 88 19 q 76 440 111 451 m 1125 1053 q 1125 1027 1125 1053 q 1069 962 1125 1000 q 943 924 1014 924 q 831 951 872 924 q 790 1026 790 979 q 850 1126 790 1090 q 976 1163 910 1163 q 1084 1135 1043 1163 q 1125 1053 1125 1107 m 855 -35 q 811 -35 855 -35 q 729 8 768 -35 q 690 140 690 51 q 779 613 690 228 l 701 729 q 975 833 875 833 q 1056 809 1032 833 q 1079 731 1079 785 q 1028 486 1079 710 q 976 167 976 263 q 1019 33 976 71 q 855 -35 942 -35 z "},"ﬂ":{"ha":1185,"x_min":67,"x_max":1121,"o":"m 76 440 q 67 503 67 471 q 104 604 67 569 q 200 640 142 639 q 190 735 190 683 q 269 998 190 888 q 493 1108 349 1108 q 617 1061 572 1108 q 663 951 663 1014 q 619 845 663 889 q 507 801 576 801 q 383 835 438 801 l 364 819 l 413 654 q 560 692 485 664 q 569 617 569 661 q 544 535 569 574 q 469 486 518 497 q 381 -97 381 76 q 424 -224 381 -186 q 242 -292 322 -292 q 125 -235 163 -292 q 88 -79 88 -178 q 174 464 88 19 q 76 440 111 451 m 821 864 l 743 975 q 1017 1076 917 1076 q 1097 1053 1074 1076 q 1121 967 1121 1031 q 1059 611 1121 904 q 997 200 997 318 q 1040 33 997 82 q 864 -35 943 -35 q 748 17 785 -35 q 711 161 711 69 q 763 536 711 253 q 821 864 814 819 z "}}}
